<?xml version="1.0" standalone="no"?>
<!DOCTYPE svg PUBLIC "-//W3C//DTD SVG 1.1//EN" "http://www.w3.org/Graphics/SVG/1.1/DTD/svg11.dtd" >
<!--
2013-9-30: Created.
-->
<svg>
<metadata>
Created by iconfont
</metadata>
<defs>

<font id="iconfont" horiz-adv-x="1024" >
  <font-face
    font-family="iconfont"
    font-weight="500"
    font-stretch="normal"
    units-per-em="1024"
    ascent="896"
    descent="-128"
  />
    <missing-glyph />
    
    <glyph glyph-name="biaoqian" unicode="&#58935;" d="M947.2 473.6l-12.8 212.8c-3.2 64-56 116.8-120 120l-212.8 12.8c-36.8 1.6-72-11.2-97.6-36.8L113.6 393.6C64 342.4 64 262.4 113.6 212.8l225.6-225.6c49.6-49.6 131.2-49.6 180.8 0l388.8 388.8c27.2 25.6 41.6 60.8 38.4 97.6z m-81.6-52.8L475.2 30.4c-25.6-25.6-65.6-25.6-91.2 0L158.4 257.6c-25.6 25.6-25.6 65.6 0 91.2L548.8 737.6c12.8 12.8 30.4 19.2 49.6 19.2l214.4-12.8c32-1.6 57.6-27.2 60.8-60.8l12.8-212.8c-1.6-19.2-8-36.8-20.8-49.6zM550.4 603.2c-49.6-49.6-49.6-131.2 0-180.8s131.2-49.6 180.8 0 49.6 131.2 0 180.8-131.2 49.6-180.8 0z m134.4-136c-25.6-25.6-65.6-25.6-91.2 0-25.6 25.6-25.6 65.6 0 91.2 25.6 25.6 65.6 25.6 91.2 0 25.6-25.6 25.6-65.6 0-91.2z"  horiz-adv-x="1024" />

    
    <glyph glyph-name="bukejian" unicode="&#58936;" d="M936 348.8c14.4 22.4 14.4 49.6 0 72C809.6 608 667.2 704 512 704c-73.6 0-144-20.8-211.2-64l-83.2 83.2c-12.8 12.8-32 12.8-44.8 0s-12.8-32 0-44.8l75.2-75.2C192 556.8 139.2 496 88 419.2c-14.4-22.4-14.4-49.6 0-72C214.4 160 356.8 64 512 64c73.6 0 144 20.8 211.2 64l83.2-83.2c12.8-12.8 32-12.8 44.8 0s12.8 32 0 44.8l-75.2 75.2c56 46.4 108.8 107.2 160 184zM512 128c-132.8 0-257.6 86.4-371.2 256 49.6 73.6 100.8 131.2 153.6 172.8l107.2-107.2c-11.2-19.2-17.6-41.6-17.6-65.6 0-70.4 57.6-128 128-128 24 0 46.4 6.4 65.6 17.6l99.2-99.2C622.4 144 568 128 512 128z m16 193.6c-4.8-1.6-11.2-1.6-16-1.6-35.2 0-64 28.8-64 64 0 6.4 1.6 11.2 1.6 16l78.4-78.4z m-32 124.8c4.8 1.6 11.2 1.6 16 1.6 35.2 0 64-28.8 64-64 0-6.4-1.6-11.2-1.6-16L496 446.4z m233.6-235.2l-107.2 107.2c11.2 19.2 17.6 41.6 17.6 65.6 0 70.4-57.6 128-128 128-24 0-46.4-6.4-65.6-17.6l-99.2 99.2C401.6 624 456 640 512 640c132.8 0 257.6-86.4 371.2-256-49.6-73.6-100.8-131.2-153.6-172.8z"  horiz-adv-x="1024" />

    
    <glyph glyph-name="biaoqian1" unicode="&#58937;" d="M752 800H272c-70.4 0-128-57.6-128-128v-630.4c0-17.6 4.8-35.2 14.4-49.6 27.2-44.8 86.4-59.2 131.2-32l208 126.4c9.6 6.4 22.4 6.4 33.6 0l201.6-124.8c14.4-9.6 32-14.4 49.6-14.4 52.8 0 96 43.2 96 96V672c1.6 70.4-56 128-126.4 128z m64-756.8c0-17.6-14.4-32-32-32-6.4 0-11.2 1.6-16 4.8l-201.6 124.8c-30.4 19.2-68.8 19.2-99.2 0l-208-126.4c-14.4-9.6-35.2-4.8-43.2 11.2-3.2 4.8-4.8 11.2-4.8 16V672c0 35.2 28.8 64 64 64h480c35.2 0 64-28.8 64-64v-628.8zM640 608H384c-17.6 0-32-14.4-32-32s14.4-32 32-32h256c17.6 0 32 14.4 32 32s-14.4 32-32 32z"  horiz-adv-x="1024" />

    
    <glyph glyph-name="bingzhuangtu" unicode="&#58938;" d="M928 366.4c-9.6 11.2-24 17.6-38.4 17.6H526.4c-8 0-14.4 6.4-14.4 14.4V761.6c0 14.4-6.4 28.8-17.6 38.4-11.2 9.6-25.6 14.4-41.6 12.8-227.2-32-390.4-235.2-371.2-465.6 17.6-206.4 187.2-376 393.6-393.6 12.8-1.6 24-1.6 36.8-1.6 214.4 0 398.4 158.4 428.8 372.8 1.6 16-3.2 30.4-12.8 41.6zM480 17.6C304 32 160 176 145.6 352 129.6 544 260.8 713.6 448 747.2v-348.8c0-43.2 35.2-78.4 78.4-78.4h348.8C841.6 132.8 672 1.6 480 17.6zM628.8 448h246.4c16 0 32 8 41.6 20.8 9.6 12.8 12.8 30.4 8 46.4-43.2 132.8-147.2 238.4-280 280-16 4.8-33.6 1.6-46.4-8-14.4-8-22.4-24-22.4-41.6v-246.4c0-27.2 24-51.2 52.8-51.2z m11.2 281.6c100.8-36.8 179.2-116.8 217.6-217.6H640V729.6z"  horiz-adv-x="1024" />

    
    <glyph glyph-name="bianji" unicode="&#58939;" d="M904 654.4L790.4 768c-36.8 36.8-97.6 36.8-136 0L129.6 243.2c-11.2-11.2-17.6-27.2-17.6-43.2l-6.4-166.4v-4.8c1.6-17.6 8-33.6 20.8-44.8 11.2-11.2 27.2-16 43.2-16h3.2l163.2 6.4c16 0 30.4 8 41.6 19.2l524.8 524.8c40 38.4 40 99.2 1.6 136zM203.2 225.6l419.2 419.2 158.4-158.4-419.2-419.2-158.4 158.4z m-35.2-195.2l4.8 132.8 126.4-126.4-131.2-6.4z m691.2 534.4l-33.6-33.6-158.4 158.4 33.6 33.6c6.4 6.4 14.4 9.6 22.4 9.6 8 0 16-3.2 22.4-9.6l113.6-113.6c12.8-12.8 12.8-32 0-44.8z"  horiz-adv-x="1024" />

    
    <glyph glyph-name="cunchuqia" unicode="&#58940;" d="M256 736h-48c-35.2 0-64-28.8-64-64v-576c0-35.2 28.8-64 64-64h608c35.2 0 64 28.8 64 64V672c0 35.2-28.8 64-64 64h-48v-288c0-35.2-28.8-64-64-64H320c-35.2 0-64 28.8-64 64V736z m-48 64h608c70.4 0 128-57.6 128-128v-576c0-70.4-57.6-128-128-128H208c-70.4 0-128 57.6-128 128V672c0 70.4 57.6 128 128 128z m112-352h384V736H320v-288z m288 224c17.6 0 32-14.4 32-32v-96c0-17.6-14.4-32-32-32s-32 14.4-32 32v96c0 17.6 14.4 32 32 32z"  horiz-adv-x="1024" />

    
    <glyph glyph-name="dakaiquanxian" unicode="&#58941;" d="M736 496h-16v128c0 105.6-86.4 192-192 192h-32c-105.6 0-192-86.4-192-192 0-17.6 14.4-32 32-32s32 14.4 32 32c0 70.4 57.6 128 128 128h32c70.4 0 128-57.6 128-128v-128H288c-105.6 0-192-86.4-192-192v-160c0-105.6 86.4-192 192-192h448c105.6 0 192 86.4 192 192V304c0 105.6-86.4 192-192 192z m128-352c0-70.4-57.6-128-128-128H288c-70.4 0-128 57.6-128 128V304c0 70.4 57.6 128 128 128h448c70.4 0 128-57.6 128-128v-160zM512 336c-35.2 0-64-28.8-64-64 0-24 12.8-44.8 32-56V144c0-17.6 14.4-32 32-32s32 14.4 32 32v72c19.2 11.2 32 32 32 56 0 35.2-28.8 64-64 64z"  horiz-adv-x="1024" />

    
    <glyph glyph-name="dianzan" unicode="&#58942;" d="M859.2 489.6H616c-1.6 0-3.2 1.6-3.2 4.8l43.2 152c8 28.8 4.8 59.2-9.6 84.8S608 777.6 579.2 785.6c-28.8 8-59.2 4.8-84.8-9.6s-44.8-38.4-52.8-67.2l-22.4-78.4c-24-81.6-99.2-139.2-184-139.2h-68.8c-52.8 0-96-43.2-96-96v-320c0-52.8 43.2-96 96-96h612.8c44.8 0 83.2 30.4 92.8 72l80 320c1.6 8 3.2 16 3.2 24 0 52.8-43.2 94.4-96 94.4z m-694.4-448c-17.6 0-32 14.4-32 32v320c0 17.6 14.4 32 32 32h80v-384h-80z m724.8 345.6l-80-320c-3.2-14.4-16-24-30.4-24H308.8V438.4c80 25.6 145.6 89.6 169.6 174.4l22.4 78.4c3.2 12.8 11.2 22.4 22.4 28.8 11.2 6.4 24 8 36.8 4.8 12.8-3.2 22.4-11.2 28.8-22.4 6.4-11.2 8-24 4.8-36.8L550.4 512c-1.6-6.4-3.2-12.8-3.2-19.2 0-36.8 30.4-67.2 67.2-67.2h243.2c17.6 0 32-14.4 32-32 1.6-1.6 0-4.8 0-6.4z"  horiz-adv-x="1024" />

    
    <glyph glyph-name="dingdan" unicode="&#58943;" d="M496 192h-128c-17.6 0-32-14.4-32-32s14.4-32 32-32h128c17.6 0 32 14.4 32 32s-14.4 32-32 32zM656 352H368c-17.6 0-32-14.4-32-32s14.4-32 32-32h288c17.6 0 32 14.4 32 32s-14.4 32-32 32zM656 512H368c-17.6 0-32-14.4-32-32s14.4-32 32-32h288c17.6 0 32 14.4 32 32s-14.4 32-32 32zM720 752h-22.4c-12.8 36.8-48 64-89.6 64H416c-41.6 0-76.8-27.2-89.6-64H304C216 752 144 680 144 592v-480c0-88 72-160 160-160h416c88 0 160 72 160 160V592c0 88-72 160-160 160zM416 752h192c17.6 0 32-14.4 32-32s-14.4-32-32-32H416c-17.6 0-32 14.4-32 32s14.4 32 32 32z m400-640c0-52.8-43.2-96-96-96H304c-52.8 0-96 43.2-96 96V592c0 52.8 43.2 96 96 96h22.4c12.8-36.8 48-64 89.6-64h192c41.6 0 76.8 27.2 89.6 64H720c52.8 0 96-43.2 96-96v-480z"  horiz-adv-x="1024" />

    
    <glyph glyph-name="dingwei" unicode="&#58944;" d="M512 816c-176 0-320-144-320-320 0-96 72-249.6 214.4-456 19.2-28.8 48-46.4 81.6-52.8 8-3.2 16-3.2 24-3.2 25.6 0 51.2 8 72 22.4 12.8 9.6 24 20.8 33.6 33.6C760 246.4 832 400 832 496c0 176-144 320-320 320z m52.8-740.8c-4.8-6.4-9.6-12.8-16-16-14.4-9.6-30.4-12.8-48-9.6-17.6 3.2-32 12.8-41.6 27.2C291.2 320 256 438.4 256 496c0 140.8 115.2 256 256 256s256-115.2 256-256c0-57.6-35.2-176-203.2-420.8zM512 608c-70.4 0-128-57.6-128-128s57.6-128 128-128 128 57.6 128 128-57.6 128-128 128z m0-192c-35.2 0-64 28.8-64 64s28.8 64 64 64 64-28.8 64-64-28.8-64-64-64z"  horiz-adv-x="1024" />

    
    <glyph glyph-name="erweima" unicode="&#58945;" d="M368 336H176c-52.8 0-96-43.2-96-96v-192c0-52.8 43.2-96 96-96h192c52.8 0 96 43.2 96 96V240c0 52.8-43.2 96-96 96z m32-288c0-17.6-14.4-32-32-32H176c-17.6 0-32 14.4-32 32V240c0 17.6 14.4 32 32 32h192c17.6 0 32-14.4 32-32v-192zM368 816H176c-52.8 0-96-43.2-96-96v-192c0-52.8 43.2-96 96-96h192c52.8 0 96 43.2 96 96V720c0 52.8-43.2 96-96 96z m32-288c0-17.6-14.4-32-32-32H176c-17.6 0-32 14.4-32 32V720c0 17.6 14.4 32 32 32h192c17.6 0 32-14.4 32-32v-192zM896 336c-17.6 0-32-14.4-32-32v-320c0-17.6 14.4-32 32-32s32 14.4 32 32V304c0 17.6-14.4 32-32 32zM848 816H656c-52.8 0-96-43.2-96-96v-192c0-52.8 43.2-96 96-96h192c52.8 0 96 43.2 96 96V720c0 52.8-43.2 96-96 96z m32-288c0-17.6-14.4-32-32-32H656c-17.6 0-32 14.4-32 32V720c0 17.6 14.4 32 32 32h192c17.6 0 32-14.4 32-32v-192zM608 288c-17.6 0-32-14.4-32-32v-272c0-17.6 14.4-32 32-32s32 14.4 32 32V256c0 17.6-14.4 32-32 32zM752 192c-17.6 0-32-14.4-32-32v-176c0-17.6 14.4-32 32-32s32 14.4 32 32V160c0 17.6-14.4 32-32 32z"  horiz-adv-x="1024" />

    
    <glyph glyph-name="yinhangqia" unicode="&#58946;" d="M784 768H240C152 768 80 696 80 608v-448c0-88 72-160 160-160h544c88 0 160 72 160 160V608c0 88-72 160-160 160z m-544-64h544c52.8 0 96-43.2 96-96v-64H144v64c0 52.8 43.2 96 96 96z m544-640H240c-52.8 0-96 43.2-96 96V480h736v-320c0-52.8-43.2-96-96-96zM272 288c-17.6 0-32-14.4-32-32v-64c0-17.6 14.4-32 32-32s32 14.4 32 32v64c0 17.6-14.4 32-32 32zM400 288c-17.6 0-32-14.4-32-32v-64c0-17.6 14.4-32 32-32s32 14.4 32 32v64c0 17.6-14.4 32-32 32zM528 288c-17.6 0-32-14.4-32-32v-64c0-17.6 14.4-32 32-32s32 14.4 32 32v64c0 17.6-14.4 32-32 32z"  horiz-adv-x="1024" />

    
    <glyph glyph-name="faxian" unicode="&#58947;" d="M977.6 500.8c-9.6 38.4-72 60.8-164.8 65.6C752 667.2 640 736 512 736c-187.2 0-342.4-148.8-352-334.4-80-46.4-123.2-94.4-113.6-134.4 9.6-38.4 72-60.8 163.2-65.6C272 100.8 384 32 512 32c188.8 0 342.4 148.8 352 334.4 78.4 46.4 123.2 94.4 113.6 134.4zM512 672c99.2 0 185.6-49.6 236.8-124.8 1.6-1.6 1.6-3.2 3.2-4.8 3.2-4.8 6.4-11.2 11.2-17.6 1.6-1.6 1.6-3.2 3.2-4.8 19.2-35.2 30.4-73.6 33.6-116.8-72-36.8-164.8-72-267.2-97.6-102.4-25.6-201.6-38.4-281.6-40-16 35.2-25.6 75.2-25.6 116.8C224 542.4 353.6 672 512 672zM120 281.6c-1.6 1.6-4.8 1.6-6.4 3.2 1.6 1.6 3.2 3.2 3.2 4.8 9.6 11.2 25.6 25.6 46.4 38.4 3.2-20.8 8-40 14.4-59.2-22.4 3.2-43.2 8-57.6 12.8zM512 96c-91.2 0-171.2 41.6-224 107.2 76.8 3.2 164.8 17.6 259.2 40 92.8 24 179.2 52.8 248 86.4C769.6 196.8 652.8 96 512 96z m393.6 382.4c-9.6-11.2-25.6-25.6-46.4-40-3.2 20.8-8 40-14.4 59.2 24-3.2 44.8-6.4 59.2-12.8 1.6-1.6 4.8-1.6 6.4-3.2-1.6 0-3.2-1.6-4.8-3.2zM336 384m-32 0a32 32 0 1 1 64 0 32 32 0 1 1-64 0ZM624 512m-48 0a48 48 0 1 1 96 0 48 48 0 1 1-96 0ZM480 176m-32 0a32 32 0 1 1 64 0 32 32 0 1 1-64 0Z"  horiz-adv-x="1024" />

    
    <glyph glyph-name="fanhui" unicode="&#58948;" d="M648 588.8H217.6l128 128c12.8 12.8 12.8 32 0 44.8-12.8 12.8-32 12.8-44.8 0L118.4 580.8c-6.4-6.4-9.6-14.4-9.6-22.4s3.2-16 9.6-22.4l180.8-180.8c12.8-12.8 32-12.8 44.8 0 12.8 12.8 12.8 32 0 44.8l-124.8 124.8h428.8c120 0 216-96 216-216s-96-216-216-216H320c-17.6 0-32-14.4-32-32s14.4-32 32-32h328c155.2 0 280 124.8 280 280s-124.8 280-280 280z"  horiz-adv-x="1024" />

    
    <glyph glyph-name="fenxiang" unicode="&#58949;" d="M880 256v-144c0-35.2-28.8-64-64-64H208c-35.2 0-64 28.8-64 64V656c0 35.2 28.8 64 64 64h208c17.6 0 32 14.4 32 32s-14.4 32-32 32H208c-70.4 0-128-57.6-128-128v-544c0-70.4 57.6-128 128-128h608c70.4 0 128 57.6 128 128v144c0 17.6-14.4 32-32 32s-32-14.4-32-32zM835.2 720H624c-17.6 0-32 14.4-32 32s14.4 32 32 32h288c9.6 0 17.6-3.2 22.4-9.6 6.4-4.8 9.6-12.8 9.6-22.4v-288c0-17.6-14.4-32-32-32s-32 14.4-32 32V675.2L403.2 196.8c-12.8-12.8-32-12.8-44.8 0s-12.8 32 0 44.8L835.2 720z"  horiz-adv-x="1024" />

    
    <glyph glyph-name="dianhua" unicode="&#58950;" d="M710.4-32c-20.8 0-36.8 1.6-49.6 6.4h-1.6c-302.4 64-523.2 337.6-523.2 648C136 720 216 800 313.6 800h6.4c88-3.2 163.2-75.2 169.6-161.6 6.4-84.8-44.8-160-124.8-184-6.4-1.6-9.6-6.4-11.2-9.6-1.6-3.2-3.2-8 0-14.4 36.8-86.4 97.6-158.4 176-211.2 8-4.8 20.8-1.6 25.6 6.4 30.4 59.2 91.2 94.4 156.8 94.4 8 0 16 0 24-1.6 78.4-11.2 142.4-75.2 150.4-155.2 6.4-49.6-9.6-100.8-43.2-137.6S761.6-32 710.4-32zM200 622.4c0-281.6 200-528 473.6-585.6l3.2-1.6c9.6-3.2 19.2-3.2 33.6-3.2 32 0 64 14.4 84.8 36.8 20.8 24 30.4 54.4 27.2 88-6.4 49.6-46.4 91.2-96 97.6-48 6.4-94.4-17.6-116.8-59.2-14.4-27.2-41.6-44.8-72-44.8-16 0-32 4.8-44.8 14.4-88 59.2-156.8 142.4-198.4 240-9.6 20.8-9.6 44.8 1.6 67.2 9.6 20.8 28.8 36.8 51.2 44.8 51.2 16 84.8 64 80 118.4-4.8 56-51.2 100.8-108.8 104h-4.8c-62.4-3.2-113.6-54.4-113.6-116.8z"  horiz-adv-x="1024" />

    
    <glyph glyph-name="fenxiang1" unicode="&#58951;" d="M304 224c88 0 160 72 160 160s-72 160-160 160S144 472 144 384s72-160 160-160z m164.8 9.6C428.8 188.8 369.6 160 304 160c-123.2 0-224 100.8-224 224s100.8 224 224 224c76.8 0 144-38.4 184-97.6l174.4 100.8c-3.2 14.4-6.4 28.8-6.4 44.8 0 80 64 144 144 144s144-64 144-144-64-144-144-144c-41.6 0-78.4 17.6-104 44.8l-179.2-102.4c8-22.4 11.2-46.4 11.2-70.4 0-35.2-8-68.8-22.4-97.6l124.8-75.2c25.6 27.2 64 44.8 105.6 44.8 80 0 144-64 144-144s-64-144-144-144-144 64-144 144c0 14.4 1.6 30.4 6.4 43.2l-129.6 78.4zM800 576c44.8 0 80 35.2 80 80s-35.2 80-80 80-80-35.2-80-80 35.2-80 80-80z m-64-544c44.8 0 80 35.2 80 80s-35.2 80-80 80-80-35.2-80-80 35.2-80 80-80z"  horiz-adv-x="1024" />

    
    <glyph glyph-name="fujian" unicode="&#58952;" d="M729.6 484.8L446.4 201.6c-43.2-43.2-115.2-43.2-158.4 0s-43.2 115.2 0 158.4l334.4 334.4c72 72 188.8 72 260.8 0s72-188.8 0-260.8L524.8 76.8c-99.2-99.2-262.4-99.2-361.6 0s-99.2 262.4 0 361.6L468.8 745.6c3.2 3.2 6.4 4.8 8 8l3.2 3.2c12.8 12.8 32 12.8 44.8 0 12.8-12.8 12.8-32 0-44.8-4.8-3.2-8-6.4-11.2-11.2L208 393.6c-75.2-75.2-75.2-196.8 0-272s196.8-75.2 272 0l305.6 305.6 11.2 11.2 40 40c46.4 46.4 46.4 123.2 0 169.6s-123.2 46.4-169.6 0L332.8 315.2c-19.2-19.2-19.2-49.6 0-67.2 19.2-19.2 49.6-19.2 67.2 0l283.2 283.2c12.8 12.8 32 12.8 44.8 0 12.8-14.4 12.8-33.6 1.6-46.4z"  horiz-adv-x="1024" />

    
    <glyph glyph-name="fuwuqi" unicode="&#58953;" d="M896 608v64c0 70.4-57.6 128-128 128H256c-70.4 0-128-57.6-128-128v-64c0-38.4 17.6-72 43.2-96C145.6 488 128 454.4 128 416v-64c0-38.4 17.6-72 43.2-96C145.6 232 128 198.4 128 160v-64c0-70.4 57.6-128 128-128h512c70.4 0 128 57.6 128 128v64c0 38.4-17.6 72-43.2 96 27.2 24 43.2 57.6 43.2 96v64c0 38.4-17.6 72-43.2 96 25.6 24 43.2 57.6 43.2 96z m-64-512c0-35.2-28.8-64-64-64H256c-35.2 0-64 28.8-64 64v64c0 35.2 28.8 64 64 64h512c35.2 0 64-28.8 64-64v-64z m0 256c0-35.2-28.8-64-64-64H256c-35.2 0-64 28.8-64 64v64c0 35.2 28.8 64 64 64h512c35.2 0 64-28.8 64-64v-64z m0 256c0-35.2-28.8-64-64-64H256c-35.2 0-64 28.8-64 64v64c0 35.2 28.8 64 64 64h512c35.2 0 64-28.8 64-64v-64zM704 640m-32 0a32 32 0 1 1 64 0 32 32 0 1 1-64 0ZM704 384m-32 0a32 32 0 1 1 64 0 32 32 0 1 1-64 0ZM704 128m-32 0a32 32 0 1 1 64 0 32 32 0 1 1-64 0Z"  horiz-adv-x="1024" />

    
    <glyph glyph-name="faxian1" unicode="&#58954;" d="M512 800C283.2 800 96 612.8 96 384s187.2-416 416-416 416 187.2 416 416S740.8 800 512 800z m0-768c-193.6 0-352 158.4-352 352s158.4 352 352 352 352-158.4 352-352-158.4-352-352-352zM668.8 587.2l-211.2-64C416 512 384 480 371.2 438.4l-64-211.2c-4.8-12.8 0-27.2 9.6-36.8 6.4-8 17.6-11.2 27.2-11.2 3.2 0 8 0 11.2 1.6l211.2 64C608 256 640 288 652.8 329.6l64 211.2c4.8 12.8 0 27.2-9.6 36.8-11.2 11.2-25.6 14.4-38.4 9.6z m-78.4-240c-6.4-20.8-22.4-36.8-43.2-43.2L384 256l49.6 164.8c6.4 20.8 22.4 36.8 43.2 43.2L640 512l-49.6-164.8zM512 384m-32 0a32 32 0 1 1 64 0 32 32 0 1 1-64 0Z"  horiz-adv-x="1024" />

    
    <glyph glyph-name="gengduo" unicode="&#58955;" d="M736 384c0-8-3.2-16-9.6-22.4l-384-384c-12.8-12.8-32-12.8-44.8 0-12.8 12.8-12.8 32 0 44.8L659.2 384 297.6 745.6c-12.8 12.8-12.8 32 0 44.8 12.8 12.8 32 12.8 44.8 0l384-384c6.4-6.4 9.6-14.4 9.6-22.4z"  horiz-adv-x="1024" />

    
    <glyph glyph-name="gonggao" unicode="&#58956;" d="M494.4 724.8l-155.2-97.6c-20.8-12.8-43.2-19.2-67.2-19.2h-76.8c-64 0-115.2-51.2-115.2-113.6v-225.6c0-68.8 56-124.8 124.8-124.8h89.6c24 0 46.4-6.4 67.2-19.2l134.4-81.6c9.6-6.4 20.8-9.6 33.6-9.6 35.2 0 64 28.8 64 64V670.4c0 11.2-3.2 24-9.6 33.6-20.8 30.4-59.2 40-89.6 20.8zM528 97.6l-134.4 81.6c-30.4 17.6-64 28.8-99.2 28.8h-89.6C171.2 208 144 235.2 144 268.8V494.4c0 27.2 22.4 49.6 49.6 49.6H272c36.8 0 70.4 9.6 102.4 28.8l155.2 97.6v-572.8zM912 416H720c-17.6 0-32-14.4-32-32s14.4-32 32-32h192c17.6 0 32 14.4 32 32s-14.4 32-32 32zM899.2 144l-166.4 96c-16 9.6-35.2 3.2-43.2-11.2-9.6-16-3.2-35.2 11.2-43.2l166.4-96c16-9.6 35.2-3.2 43.2 11.2 9.6 14.4 4.8 33.6-11.2 43.2zM731.2 528l166.4 96c16 9.6 20.8 28.8 11.2 43.2-9.6 16-28.8 20.8-43.2 11.2l-166.4-96c-16-9.6-20.8-28.8-11.2-43.2s28.8-20.8 43.2-11.2z"  horiz-adv-x="1024" />

    
    <glyph glyph-name="gouwuche" unicode="&#58957;" d="M819.2 656H256l-8 48c-8 46.4-48 80-94.4 80H96c-17.6 0-32-14.4-32-32s14.4-32 32-32h57.6c16 0 28.8-11.2 32-27.2l75.2-432v-3.2c6.4-28.8 32-49.6 62.4-49.6h440c30.4 0 57.6 22.4 62.4 52.8l57.6 320c0 3.2 1.6 8 1.6 11.2-1.6 35.2-30.4 64-65.6 64z m-56-384H323.2l-54.4 320h552l-57.6-320zM304 176c-52.8 0-96-43.2-96-96s43.2-96 96-96 96 43.2 96 96-43.2 96-96 96z m0-128c-17.6 0-32 14.4-32 32s14.4 32 32 32 32-14.4 32-32-14.4-32-32-32zM768 176c-52.8 0-96-43.2-96-96s43.2-96 96-96 96 43.2 96 96-43.2 96-96 96z m0-128c-17.6 0-32 14.4-32 32s14.4 32 32 32 32-14.4 32-32-14.4-32-32-32z"  horiz-adv-x="1024" />

    
    <glyph glyph-name="guanzhu" unicode="&#58958;" d="M548.8 121.6L752 14.4 713.6 240c-4.8 25.6 4.8 52.8 22.4 70.4l163.2 160L672 504c-25.6 3.2-48 20.8-60.8 43.2L512 753.6l-100.8-204.8c-11.2-24-33.6-40-60.8-43.2L123.2 470.4l163.2-160c19.2-17.6 27.2-44.8 22.4-70.4L272 14.4l203.2 107.2c22.4 12.8 51.2 12.8 73.6 0z m-44.8-56l-203.2-107.2c-32-16-70.4-4.8-86.4 27.2-6.4 12.8-9.6 27.2-6.4 40l38.4 225.6c1.6 4.8-1.6 11.2-4.8 14.4L80 425.6c-25.6 24-25.6 65.6-1.6 91.2 9.6 9.6 22.4 16 36.8 19.2l227.2 33.6c4.8 0 9.6 4.8 12.8 8l100.8 204.8c16 32 54.4 44.8 86.4 28.8 12.8-6.4 22.4-16 28.8-28.8L670.4 576c1.6-4.8 6.4-8 12.8-8l227.2-33.6c35.2-4.8 59.2-36.8 54.4-72-1.6-14.4-8-27.2-19.2-36.8l-163.2-160c-3.2-3.2-4.8-9.6-4.8-14.4L816 25.6c6.4-35.2-17.6-67.2-52.8-73.6-14.4-1.6-28.8 0-40 6.4l-203.2 107.2c-4.8 1.6-11.2 1.6-16 0z"  horiz-adv-x="1024" />

    
    <glyph glyph-name="guoji" unicode="&#58959;" d="M512 816C273.6 816 80 622.4 80 384s193.6-432 432-432 432 193.6 432 432S750.4 816 512 816z m366.4-400h-112c-4.8 118.4-36.8 222.4-86.4 294.4C790.4 654.4 867.2 544 878.4 416zM480 747.2V416h-158.4c6.4 164.8 73.6 302.4 158.4 331.2zM480 352v-331.2c-84.8 28.8-152 166.4-158.4 331.2H480z m64-331.2V352h158.4c-6.4-164.8-73.6-302.4-158.4-331.2zM544 416V747.2c84.8-28.8 152-166.4 158.4-331.2H544zM342.4 710.4c-49.6-72-81.6-176-86.4-294.4H144c12.8 128 89.6 238.4 198.4 294.4zM145.6 352h112c4.8-118.4 36.8-222.4 86.4-294.4C233.6 113.6 156.8 224 145.6 352z m536-294.4c49.6 72 81.6 176 86.4 294.4h112c-12.8-128-89.6-238.4-198.4-294.4z"  horiz-adv-x="1024" />

    
    <glyph glyph-name="huiyuan" unicode="&#58960;" d="M940.8 523.2l-176 219.2c-17.6 22.4-46.4 36.8-75.2 36.8H334.4c-28.8 0-56-12.8-75.2-36.8l-176-219.2c-30.4-36.8-27.2-91.2 4.8-126.4l356.8-377.6 4.8-4.8c17.6-16 41.6-25.6 65.6-25.6h3.2c25.6 1.6 49.6 11.2 67.2 30.4l348.8 376c33.6 36.8 35.2 91.2 6.4 128z m-52.8-83.2L539.2 64c-6.4-6.4-14.4-9.6-22.4-9.6-8 0-16 3.2-22.4 8L136 441.6c-11.2 11.2-11.2 28.8-1.6 41.6l174.4 219.2c6.4 8 16 12.8 25.6 12.8h355.2c9.6 0 19.2-4.8 25.6-12.8l176-219.2c8-12.8 8-30.4-3.2-43.2zM681.6 457.6L515.2 280 344 460.8c-12.8 12.8-32 14.4-46.4 1.6-12.8-11.2-12.8-32-1.6-44.8l172.8-182.4 3.2-3.2c25.6-24 65.6-22.4 91.2 3.2L729.6 416c11.2 12.8 11.2 33.6-1.6 44.8-14.4 11.2-33.6 9.6-46.4-3.2z"  horiz-adv-x="1024" />

    
    <glyph glyph-name="haiguan" unicode="&#58961;" d="M948.8 196.8L915.2 320c-1.6 8-8 16-14.4 19.2-6.4 4.8-16 4.8-24 3.2l-123.2-33.6c-17.6-3.2-27.2-20.8-22.4-36.8 4.8-17.6 22.4-27.2 38.4-22.4l41.6 11.2c-57.6-89.6-153.6-152-265.6-163.2V352h128c17.6 0 32 14.4 32 32s-14.4 32-32 32h-128v67.2c73.6 14.4 128 80 128 156.8 0 88-72 160-160 160s-160-72-160-160c0-76.8 54.4-142.4 128-156.8V416h-128c-17.6 0-32-14.4-32-32s14.4-32 32-32h128v-254.4c-110.4 9.6-208 72-264 161.6l36.8-9.6c17.6-4.8 35.2 4.8 38.4 22.4 4.8 17.6-4.8 35.2-22.4 38.4l-123.2 33.6c-8 1.6-17.6 1.6-24-3.2s-12.8-11.2-14.4-19.2l-33.6-123.2c-4.8-17.6 4.8-35.2 22.4-38.4 17.6-4.8 35.2 4.8 38.4 22.4l16 60.8c67.2-116.8 188.8-198.4 329.6-209.6V0c0-17.6 14.4-32 32-32s32 14.4 32 32v33.6c139.2 11.2 259.2 89.6 326.4 203.2l14.4-56c4.8-17.6 22.4-27.2 38.4-22.4 19.2 4.8 28.8 22.4 24 38.4zM419.2 640c0 52.8 43.2 96 96 96s96-43.2 96-96-43.2-96-96-96-96 43.2-96 96z"  horiz-adv-x="1024" />

    
    <glyph glyph-name="jihuashu" unicode="&#58962;" d="M736 800H288C200 800 128 728 128 640v-512c0-88 72-160 160-160h448c88 0 160 72 160 160V640c0 88-72 160-160 160z m-75.2-64v-224l-51.2 48c-9.6 9.6-20.8 12.8-33.6 12.8s-24-4.8-33.6-14.4L496 513.6V736h164.8zM192 128V640c0 52.8 43.2 96 96 96v-704c-52.8 0-96 43.2-96 96z m640 0c0-52.8-43.2-96-96-96H352V736h80v-260.8c0-27.2 20.8-48 48-48 12.8 0 25.6 4.8 33.6 14.4l62.4 62.4 67.2-64c9.6-8 20.8-12.8 33.6-12.8h1.6c12.8 0 24 4.8 33.6 14.4 8 9.6 12.8 20.8 12.8 33.6V736h11.2c52.8 0 96-43.2 96-96v-512z"  horiz-adv-x="1024" />

    
    <glyph glyph-name="huoche" unicode="&#58963;" d="M752 816H272C184 816 112 744 112 656v-416c0-78.4 57.6-144 132.8-156.8L144 24c-16-9.6-20.8-28.8-11.2-43.2 9.6-16 28.8-20.8 43.2-11.2L368 80h288l193.6-112c16-9.6 35.2-3.2 43.2 11.2 9.6 16 3.2 35.2-11.2 43.2l-100.8 59.2c73.6 14.4 131.2 80 131.2 158.4V656c0 88-72 160-160 160zM272 752h480c52.8 0 96-43.2 96-96v-224H176V656c0 52.8 43.2 96 96 96z m480-608H272c-52.8 0-96 43.2-96 96v112h672v-112c0-52.8-43.2-96-96-96zM336 256m-48 0a48 48 0 1 1 96 0 48 48 0 1 1-96 0ZM688 256m-48 0a48 48 0 1 1 96 0 48 48 0 1 1-96 0Z"  horiz-adv-x="1024" />

    
    <glyph glyph-name="jinqian" unicode="&#58964;" d="M512-48C273.6-48 80 145.6 80 384S273.6 816 512 816s432-193.6 432-432-193.6-432-432-432z m0 800C308.8 752 144 587.2 144 384s164.8-368 368-368 368 164.8 368 368S715.2 752 512 752zM672 345.6h-128v64h128c17.6 0 32 14.4 32 32s-14.4 32-32 32h-89.6l88 88c12.8 12.8 12.8 32 0 44.8-12.8 12.8-32 12.8-44.8 0L512 492.8l-113.6 113.6c-12.8 12.8-32 12.8-44.8 0-12.8-12.8-12.8-32 0-44.8l88-88H352c-17.6 0-32-14.4-32-32s14.4-32 32-32h128v-64h-128c-17.6 0-32-14.4-32-32s14.4-32 32-32h128v-128c0-17.6 14.4-32 32-32s32 14.4 32 32v128h128c17.6 0 32 14.4 32 32s-14.4 32-32 32z"  horiz-adv-x="1024" />

    
    <glyph glyph-name="kejian" unicode="&#58965;" d="M512 64c-155.2 0-297.6 96-424 284.8-14.4 22.4-14.4 49.6 0 72C214.4 608 356.8 704 512 704s297.6-96 424-284.8c14.4-22.4 14.4-49.6 0-72C809.6 160 667.2 64 512 64z m0 576c-132.8 0-257.6-86.4-371.2-256C256 214.4 380.8 128 512 128s257.6 86.4 371.2 256C769.6 553.6 644.8 640 512 640zM512 256c-70.4 0-128 57.6-128 128s57.6 128 128 128 128-57.6 128-128-57.6-128-128-128z m0 192c-35.2 0-64-28.8-64-64s28.8-64 64-64 64 28.8 64 64-28.8 64-64 64z"  horiz-adv-x="1024" />

    
    <glyph glyph-name="jingbao" unicode="&#58966;" d="M912 48h-144V368c0 140.8-115.2 256-256 256s-256-115.2-256-256v-320H112c-17.6 0-32-14.4-32-32s14.4-32 32-32h800c17.6 0 32 14.4 32 32s-14.4 32-32 32z m-592 0V368c0 105.6 86.4 192 192 192s192-86.4 192-192v-320H320zM416 368c-17.6 0-32-14.4-32-32v-192c0-17.6 14.4-32 32-32s32 14.4 32 32V336c0 17.6-14.4 32-32 32zM512 688c17.6 0 32 14.4 32 32V784c0 17.6-14.4 32-32 32s-32-14.4-32-32v-64c0-17.6 14.4-32 32-32zM755.2 622.4l44.8 44.8c12.8 12.8 12.8 32 0 44.8-12.8 12.8-32 12.8-44.8 0l-44.8-44.8c-12.8-12.8-12.8-32 0-44.8 12.8-12.8 33.6-12.8 44.8 0zM275.2 622.4c12.8-12.8 32-12.8 44.8 0 12.8 12.8 12.8 32 0 44.8l-44.8 44.8c-12.8 12.8-32 12.8-44.8 0-12.8-12.8-12.8-32 0-44.8l44.8-44.8zM112 416h64c17.6 0 32 14.4 32 32s-14.4 32-32 32H112c-17.6 0-32-14.4-32-32s14.4-32 32-32zM848 416h64c17.6 0 32 14.4 32 32s-14.4 32-32 32h-64c-17.6 0-32-14.4-32-32s14.4-32 32-32z"  horiz-adv-x="1024" />

    
    <glyph glyph-name="kehu" unicode="&#58967;" d="M512 432c88 0 160 72 160 160S600 752 512 752s-160-72-160-160 72-160 160-160z m-19.2-153.6c-8 6.4-12.8 14.4-12.8 25.6 0 17.6 14.4 32 32 32s32-14.4 32-32c0-11.2-4.8-19.2-12.8-25.6l43.2-152c3.2-11.2 0-22.4-8-30.4l-43.2-43.2c-6.4-6.4-16-6.4-22.4 0L457.6 96c-8 8-11.2 19.2-8 30.4l43.2 152zM372.8 416c-51.2 41.6-84.8 104-84.8 176 0 123.2 100.8 224 224 224s224-100.8 224-224c0-70.4-33.6-134.4-84.8-176C811.2 369.6 928 222.4 928 48c0-52.8-43.2-96-96-96H192c-52.8 0-96 43.2-96 96 0 174.4 116.8 321.6 276.8 368zM832 16c17.6 0 32 14.4 32 32 0 176-144 320-320 320h-64c-176 0-320-144-320-320 0-17.6 14.4-32 32-32h640z"  horiz-adv-x="1024" />

    
    <glyph glyph-name="lianxiren" unicode="&#58968;" d="M768 800H320c-88 0-160-72-160-160v-96H128c-17.6 0-32-14.4-32-32s14.4-32 32-32h32v-192H128c-17.6 0-32-14.4-32-32s14.4-32 32-32h32v-96c0-88 72-160 160-160h448c88 0 160 72 160 160V640c0 88-72 160-160 160z m96-672c0-52.8-43.2-96-96-96H320c-52.8 0-96 43.2-96 96v96h32c17.6 0 32 14.4 32 32s-14.4 32-32 32h-32V480h32c17.6 0 32 14.4 32 32s-14.4 32-32 32h-32v96c0 52.8 43.2 96 96 96h448c52.8 0 96-43.2 96-96v-512zM659.2 432c17.6 22.4 28.8 49.6 28.8 80 0 70.4-57.6 128-128 128s-128-57.6-128-128c0-30.4 11.2-57.6 28.8-80-73.6-32-124.8-113.6-124.8-208 0-52.8 43.2-96 96-96h256c52.8 0 96 43.2 96 96 0 94.4-51.2 176-124.8 208zM560 576c35.2 0 64-28.8 64-64s-28.8-64-64-64-64 28.8-64 64 28.8 64 64 64z m128-384H432c-17.6 0-32 14.4-32 32 0 88 59.2 160 131.2 160h56c72 0 131.2-72 131.2-160 1.6-17.6-12.8-32-30.4-32z"  horiz-adv-x="1024" />

    
    <glyph glyph-name="kefu" unicode="&#58969;" d="M848 512h-33.6C806.4 672 675.2 800 512 800s-294.4-128-302.4-288H176c-52.8 0-96-43.2-96-96v-64c0-52.8 43.2-96 96-96h32c35.2 0 64 28.8 64 64V496c0 132.8 107.2 240 240 240s240-107.2 240-240v-224c0-97.6-67.2-179.2-156.8-201.6-11.2 16-30.4 25.6-51.2 25.6h-64c-35.2 0-64-28.8-64-64s28.8-64 64-64h64c25.6 0 49.6 16 59.2 38.4C720 32 808 132.8 816 256h32c52.8 0 96 43.2 96 96v64c0 52.8-43.2 96-96 96zM176 320c-17.6 0-32 14.4-32 32v64c0 17.6 14.4 32 32 32h32v-128h-32z m704 32c0-17.6-14.4-32-32-32h-32v128h32c17.6 0 32-14.4 32-32v-64z"  horiz-adv-x="1024" />

    
    <glyph glyph-name="luxiang" unicode="&#58970;" d="M937.6 569.6c-20.8 28.8-60.8 35.2-89.6 16l-64-44.8V544c0 88-72 160-160 160H240C152 704 80 632 80 544v-320c0-88 72-160 160-160h384c84.8 0 153.6 65.6 160 147.2l65.6-44.8c11.2-8 24-11.2 36.8-11.2 35.2 0 64 28.8 64 64V532.8c-1.6 12.8-4.8 25.6-12.8 36.8zM720 224c0-52.8-43.2-96-96-96H240c-52.8 0-96 43.2-96 96V544c0 52.8 43.2 96 96 96h384c52.8 0 96-43.2 96-96v-320z m164.8-4.8L784 289.6V462.4l100.8 70.4v-313.6zM288 496m-48 0a48 48 0 1 1 96 0 48 48 0 1 1-96 0Z"  horiz-adv-x="1024" />

    
    <glyph glyph-name="luyin" unicode="&#58971;" d="M512 256c115.2 0 208 92.8 208 208V624c0 115.2-92.8 208-208 208S304 739.2 304 624v-160c0-115.2 92.8-208 208-208z m-144 368c0 80 64 144 144 144s144-64 144-144v-160c0-80-64-144-144-144s-144 64-144 144V624zM844.8 416c0 17.6-14.4 32-32 32-16 0-30.4-12.8-32-28.8C758.4 289.6 646.4 192 512 192s-246.4 97.6-268.8 227.2c-1.6 16-16 28.8-32 28.8-17.6 0-32-14.4-32-32v-4.8C204.8 260.8 328 144 480 129.6V-32c0-17.6 14.4-32 32-32s32 14.4 32 32V129.6c152 14.4 275.2 131.2 299.2 280 0 1.6 1.6 4.8 1.6 6.4z"  horiz-adv-x="1024" />

    
    <glyph glyph-name="lunchuan" unicode="&#58972;" d="M956.8 60.8c-6.4 16-25.6 24-41.6 16l-54.4-24c-16-6.4-33.6-12.8-51.2-17.6l104 280c11.2 33.6-6.4 70.4-40 81.6L800 422.4V592c0 35.2-28.8 64-64 64h-80v64c0 52.8-43.2 96-96 96h-96c-52.8 0-96-43.2-96-96v-64h-80c-35.2 0-64-28.8-64-64v-174.4l-60.8-20.8c-16-6.4-28.8-17.6-35.2-33.6-6.4-16-8-33.6-1.6-49.6l105.6-283.2c-20.8 4.8-41.6 9.6-60.8 19.2l-60.8 27.2c-16 8-35.2 0-41.6-16-8-16 0-35.2 16-41.6L144-8c36.8-16 73.6-25.6 113.6-28.8h27.2c36.8 0 73.6 6.4 108.8 17.6 35.2 11.2 70.4 17.6 105.6 17.6h27.2c27.2-1.6 52.8-6.4 80-14.4l11.2-3.2c27.2-8 52.8-12.8 80-16h9.6c6.4 0 12.8 0 19.2-1.6h16c8 0 14.4 0 22.4 1.6h1.6l9.6 1.6c38.4 4.8 76.8 14.4 112 30.4l54.4 24c14.4 4.8 22.4 24 14.4 40zM432 720c0 17.6 14.4 32 32 32h96c17.6 0 32-14.4 32-32v-64H432v64z m305.6-694.4h-20.8c-3.2 0-8 0-11.2 1.6-17.6 1.6-36.8 4.8-54.4 9.6l-11.2 3.2c-32 9.6-64 16-97.6 19.2v384L852.8 336l-115.2-310.4zM288 592h448v-144l-152 52.8c-20.8 6.4-41.6 11.2-62.4 11.2-20.8 0-41.6-3.2-62.4-11.2L288 443.2V592z m192-155.2v-377.6c-43.2-1.6-86.4-9.6-128-24-16-4.8-33.6-9.6-49.6-9.6L185.6 336 480 436.8z"  horiz-adv-x="1024" />

    
    <glyph glyph-name="pifu" unicode="&#58973;" d="M772.8 800v-64l163.2-161.6-91.2-91.2c-12.8 11.2-27.2 16-43.2 16-36.8 0-65.6-28.8-65.6-65.6V96c0-35.2-28.8-64-64-64H352c-35.2 0-64 28.8-64 64V433.6c0 36.8-28.8 65.6-65.6 65.6-16 0-32-6.4-43.2-16l-91.2 91.2L249.6 736h40l1.6-1.6C336 667.2 420.8 624 512 624c91.2 0 176 41.6 220.8 110.4 0 1.6 1.6 1.6 1.6 1.6h38.4V800M291.2 800H256c-22.4 0-38.4-6.4-49.6-19.2L43.2 619.2c-25.6-25.6-25.6-65.6 0-89.6l94.4-94.4c11.2-11.2 27.2-17.6 41.6-17.6s30.4 6.4 41.6 17.6h1.6c1.6 0 1.6 0 1.6-1.6V96c0-70.4 57.6-128 128-128h320c70.4 0 128 57.6 128 128V433.6c0 1.6 0 1.6 1.6 1.6h1.6c11.2-11.2 27.2-17.6 41.6-17.6 16 0 30.4 6.4 41.6 17.6l94.4 94.4c25.6 25.6 25.6 65.6 0 89.6L819.2 780.8c-12.8 12.8-28.8 19.2-46.4 19.2h-40c-22.4 0-41.6-11.2-54.4-30.4-33.6-49.6-96-81.6-168-81.6s-134.4 33.6-168 81.6C332.8 788.8 312 800 291.2 800z"  horiz-adv-x="1024" />

    
    <glyph glyph-name="piao" unicode="&#58974;" d="M832 720H494.4c-14.4 0-28.8-4.8-41.6-14.4l-30.4-25.6c-27.2-22.4-67.2-22.4-96 0l-30.4 25.6c-9.6 9.6-24 14.4-38.4 14.4H192c-70.4 0-128-57.6-128-128v-416c0-70.4 57.6-128 128-128h52.8c20.8 0 40 9.6 51.2 25.6 52.8 72 104 72 156.8 0 12.8-16 32-25.6 51.2-25.6H832c70.4 0 128 57.6 128 128V592c0 70.4-57.6 128-128 128z m64-544c0-35.2-28.8-64-64-64H505.6c-38.4 52.8-83.2 80-129.6 80s-91.2-27.2-129.6-80H192c-35.2 0-64 28.8-64 64V592c0 35.2 28.8 64 64 64h65.6l30.4-25.6c51.2-43.2 126.4-43.2 177.6 0L496 656h336c35.2 0 64-28.8 64-64v-416zM384 528c-17.6 0-32-14.4-32-32v-64c0-17.6 14.4-32 32-32s32 14.4 32 32v64c0 17.6-14.4 32-32 32zM736 496H544c-17.6 0-32-14.4-32-32s14.4-32 32-32h192c17.6 0 32 14.4 32 32s-14.4 32-32 32zM736 336H544c-17.6 0-32-14.4-32-32s14.4-32 32-32h192c17.6 0 32 14.4 32 32s-14.4 32-32 32zM384 368c-17.6 0-32-14.4-32-32v-64c0-17.6 14.4-32 32-32s32 14.4 32 32v64c0 17.6-14.4 32-32 32z"  horiz-adv-x="1024" />

    
    <glyph glyph-name="mima" unicode="&#58975;" d="M736 496h-16v128c0 105.6-86.4 192-192 192h-32c-105.6 0-192-86.4-192-192v-128h-16c-105.6 0-192-86.4-192-192v-160c0-105.6 86.4-192 192-192h448c105.6 0 192 86.4 192 192V304c0 105.6-86.4 192-192 192z m-368 128c0 70.4 57.6 128 128 128h32c70.4 0 128-57.6 128-128v-128H368v128z m496-480c0-70.4-57.6-128-128-128H288c-70.4 0-128 57.6-128 128V304c0 70.4 57.6 128 128 128h448c70.4 0 128-57.6 128-128v-160zM512 336c-35.2 0-64-28.8-64-64 0-24 12.8-44.8 32-56V144c0-17.6 14.4-32 32-32s32 14.4 32 32v72c19.2 11.2 32 32 32 56 0 35.2-28.8 64-64 64z"  horiz-adv-x="1024" />

    
    <glyph glyph-name="qidong" unicode="&#58976;" d="M776 708.8c92.8-76.8 152-192 152-321.6 0-230.4-185.6-416-416-416S96 156.8 96 387.2c0 129.6 59.2 244.8 152 321.6 6.4 4.8 12.8 8 20.8 8 17.6 0 32-14.4 32-32 0-11.2-6.4-20.8-14.4-27.2-78.4-64-128-161.6-128-272 0-195.2 156.8-352 352-352s352 156.8 352 352c0 110.4-51.2 209.6-131.2 275.2-6.4 6.4-9.6 14.4-9.6 22.4 0 17.6 14.4 32 32 32 9.6 1.6 17.6-1.6 22.4-6.4zM512 796.8c17.6 0 32-14.4 32-32v-448c0-17.6-14.4-32-32-32s-32 14.4-32 32v448c0 17.6 14.4 32 32 32z"  horiz-adv-x="1024" />

    
    <glyph glyph-name="pinglun" unicode="&#58977;" d="M816 88h-144c-4.8 0-8-1.6-11.2-4.8l-80-80c-36.8-36.8-97.6-36.8-136 0l-80 80c-3.2 3.2-6.4 4.8-11.2 4.8h-144c-70.4 0-128 57.6-128 128v448c0 70.4 57.6 128 128 128h608c70.4 0 128-57.6 128-128v-448c-1.6-70.4-59.2-128-129.6-128z m0 64c35.2 0 64 28.8 64 64v448c0 35.2-28.8 64-64 64H208c-35.2 0-64-28.8-64-64v-448c0-35.2 28.8-64 64-64h144c20.8 0 41.6-8 56-24l80-80c12.8-12.8 32-12.8 44.8 0l80 80c14.4 14.4 35.2 24 56 24H816z m-496 336c27.2 0 48-20.8 48-48v-32c0-27.2-20.8-48-48-48s-48 20.8-48 48v32c0 27.2 20.8 48 48 48z m192 0c27.2 0 48-20.8 48-48v-32c0-27.2-20.8-48-48-48s-48 20.8-48 48v32c0 27.2 20.8 48 48 48z m192 0c27.2 0 48-20.8 48-48v-32c0-27.2-20.8-48-48-48s-48 20.8-48 48v32c0 27.2 20.8 48 48 48z"  horiz-adv-x="1024" />

    
    <glyph glyph-name="qianbao" unicode="&#58978;" d="M784 768H240C152 768 80 696 80 608v-448c0-88 72-160 160-160h544c88 0 160 72 160 160V608c0 88-72 160-160 160z m96-480H592c-52.8 0-96 43.2-96 96s43.2 96 96 96h288v-192zM592 544c-88 0-160-72-160-160s72-160 160-160h288v-64c0-52.8-43.2-96-96-96H240c-52.8 0-96 43.2-96 96V608c0 52.8 43.2 96 96 96h544c52.8 0 96-43.2 96-96v-64H592zM592 384m-32 0a32 32 0 1 1 64 0 32 32 0 1 1-64 0Z"  horiz-adv-x="1024" />

    
    <glyph glyph-name="qunzu" unicode="&#58979;" d="M400 432c88 0 160 72 160 160S488 752 400 752s-160-72-160-160 72-160 160-160z m-124.8-25.6C214.4 446.4 176 515.2 176 592c0 123.2 100.8 224 224 224s224-100.8 224-224c0-76.8-38.4-145.6-99.2-185.6C640 358.4 720 244.8 720 112v-64c0-52.8-43.2-96-96-96H176c-52.8 0-96 43.2-96 96v64c0 132.8 80 246.4 195.2 294.4zM624 16c17.6 0 32 14.4 32 32v64c0 140.8-115.2 256-256 256S144 252.8 144 112v-64c0-17.6 14.4-32 32-32h448z m65.6 720c96-1.6 174.4-80 174.4-176 0-56-25.6-104-65.6-137.6 86.4-40 145.6-128 145.6-230.4v-64c0-52.8-43.2-96-96-96h-48c-17.6 0-32 14.4-32 32s14.4 32 32 32h48c17.6 0 32 14.4 32 32v64c0 105.6-84.8 190.4-190.4 192H688c-17.6 0-32 14.4-32 32s14.4 32 32 32h1.6c60.8 1.6 110.4 51.2 110.4 112s-49.6 110.4-110.4 112H688c-17.6 0-32 14.4-32 32s14.4 32 32 32h1.6z"  horiz-adv-x="1024" />

    
    <glyph glyph-name="shanchu" unicode="&#58980;" d="M880 656H704v64c0 52.8-43.2 96-96 96H416c-52.8 0-96-43.2-96-96v-64H144c-17.6 0-32-14.4-32-32s14.4-32 32-32h48v-512c0-70.4 57.6-128 128-128h384c70.4 0 128 57.6 128 128V592h48c17.6 0 32 14.4 32 32s-14.4 32-32 32z m-496 64c0 17.6 14.4 32 32 32h192c17.6 0 32-14.4 32-32v-64H384v64z m384-640c0-35.2-28.8-64-64-64H320c-35.2 0-64 28.8-64 64V592h512v-512zM416 464c-17.6 0-32-14.4-32-32v-256c0-17.6 14.4-32 32-32s32 14.4 32 32V432c0 17.6-14.4 32-32 32zM608 464c-17.6 0-32-14.4-32-32v-256c0-17.6 14.4-32 32-32s32 14.4 32 32V432c0 17.6-14.4 32-32 32z"  horiz-adv-x="1024" />

    
    <glyph glyph-name="saoma" unicode="&#58981;" d="M158.4 235.2h1.6V96c0-35.2 28.8-64 64-64h576c35.2 0 64 28.8 64 64v139.2h1.6c4.8 11.2 16 20.8 30.4 20.8s25.6-8 30.4-20.8h1.6V96c0-70.4-57.6-128-128-128H224c-70.4 0-128 57.6-128 128v139.2h1.6C102.4 248 115.2 256 128 256s25.6-8 30.4-20.8zM160 544v128c0 35.2 28.8 64 64 64h576c35.2 0 64-28.8 64-64v-128c0-17.6 14.4-32 32-32s32 14.4 32 32v128c0 70.4-57.6 128-128 128H224c-70.4 0-128-57.6-128-128v-128c0-17.6 14.4-32 32-32s32 14.4 32 32z m-48-128h800c17.6 0 32-14.4 32-32s-14.4-32-32-32H112c-17.6 0-32 14.4-32 32s14.4 32 32 32z"  horiz-adv-x="1024" />

    
    <glyph glyph-name="shangpin" unicode="&#58982;" d="M875.2 675.2L571.2 832c-36.8 19.2-81.6 19.2-118.4 0l-304-158.4c-41.6-19.2-68.8-64-68.8-112v-356.8c0-48 27.2-91.2 68.8-113.6l305.6-158.4c17.6-9.6 38.4-14.4 59.2-14.4 20.8 0 40 4.8 59.2 14.4l302.4 156.8c43.2 22.4 68.8 65.6 68.8 113.6V561.6c0 48-27.2 92.8-68.8 113.6zM483.2 776c9.6 4.8 19.2 8 28.8 8 9.6 0 20.8-1.6 28.8-6.4l304-156.8c4.8-1.6 8-4.8 12.8-8L512 433.6l-345.6 176c3.2 3.2 8 6.4 12.8 8l304 158.4z m-304-627.2C156.8 160 144 182.4 144 206.4V550.4l128-65.6v-144c0-12.8 6.4-24 17.6-28.8l22.4-11.2c1.6-1.6 4.8-1.6 6.4-1.6 9.6 0 16 6.4 16 16v137.6l144-73.6v-385.6l-299.2 155.2z m665.6 0L544-8V379.2l336 171.2v-344c0-24-12.8-46.4-35.2-57.6z"  horiz-adv-x="1024" />

    
    <glyph glyph-name="rili" unicode="&#58983;" d="M784 736h-112V768c0 17.6-14.4 32-32 32s-32-14.4-32-32v-32H416V768c0 17.6-14.4 32-32 32s-32-14.4-32-32v-32h-112C152 736 80 664 80 576v-448c0-88 72-160 160-160h544c88 0 160 72 160 160V576c0 88-72 160-160 160z m-544-64h112v-32c0-17.6 14.4-32 32-32s32 14.4 32 32v32h192v-32c0-17.6 14.4-32 32-32s32 14.4 32 32v32h112c52.8 0 96-43.2 96-96v-32H144v32c0 52.8 43.2 96 96 96z m544-640H240c-52.8 0-96 43.2-96 96V480h736v-352c0-52.8-43.2-96-96-96zM288 224h64c17.6 0 32-14.4 32-32s-14.4-32-32-32h-64c-17.6 0-32 14.4-32 32s14.4 32 32 32zM480 224h64c17.6 0 32-14.4 32-32s-14.4-32-32-32h-64c-17.6 0-32 14.4-32 32s14.4 32 32 32zM672 224h64c17.6 0 32-14.4 32-32s-14.4-32-32-32h-64c-17.6 0-32 14.4-32 32s14.4 32 32 32zM288 384h64c17.6 0 32-14.4 32-32s-14.4-32-32-32h-64c-17.6 0-32 14.4-32 32s14.4 32 32 32zM480 384h64c17.6 0 32-14.4 32-32s-14.4-32-32-32h-64c-17.6 0-32 14.4-32 32s14.4 32 32 32zM672 384h64c17.6 0 32-14.4 32-32s-14.4-32-32-32h-64c-17.6 0-32 14.4-32 32s14.4 32 32 32z"  horiz-adv-x="1024" />

    
    <glyph glyph-name="shangwu" unicode="&#58984;" d="M784 640h-80v64c0 52.8-43.2 96-96 96H416c-52.8 0-96-43.2-96-96v-64h-80C152 640 80 568 80 480v-352c0-88 72-160 160-160h544c88 0 160 72 160 160V480c0 88-72 160-160 160z m-400 64c0 17.6 14.4 32 32 32h192c17.6 0 32-14.4 32-32v-64H384v64z m-144-128h544c52.8 0 96-43.2 96-96v-32H144v32c0 52.8 43.2 96 96 96z m328-192c-11.2-19.2-32-32-56-32s-44.8 12.8-56 32h112zM784 32H240c-52.8 0-96 43.2-96 96V384h244.8c14.4-54.4 64-96 123.2-96s108.8 41.6 123.2 96H880v-256c0-52.8-43.2-96-96-96z"  horiz-adv-x="1024" />

    
    <glyph glyph-name="shezhi" unicode="&#58985;" d="M912 547.2c11.2-28.8 4.8-62.4-16-84.8-40-43.2-40-112 0-156.8 20.8-22.4 27.2-56 16-84.8-14.4-36.8-35.2-72-59.2-102.4-19.2-24-51.2-35.2-80-28.8-28.8 6.4-57.6 1.6-83.2-12.8s-43.2-38.4-52.8-65.6c-9.6-30.4-35.2-51.2-65.6-56-19.2-1.6-40-3.2-59.2-3.2-19.2 0-40 1.6-59.2 4.8-30.4 4.8-56 25.6-65.6 56-17.6 57.6-76.8 91.2-136 78.4-30.4-6.4-60.8 4.8-80 28.8-24 32-44.8 65.6-59.2 102.4-11.2 28.8-4.8 62.4 16 84.8 40 43.2 40 112 0 156.8-20.8 22.4-27.2 56-16 84.8 14.4 36.8 35.2 72 59.2 102.4 19.2 24 51.2 35.2 81.6 28.8 28.8-6.4 57.6-1.6 83.2 12.8s43.2 38.4 52.8 65.6c9.6 30.4 35.2 51.2 65.6 56 38.4 4.8 78.4 4.8 118.4 0 30.4-4.8 56-25.6 65.6-56 8-27.2 27.2-51.2 52.8-65.6 25.6-14.4 54.4-19.2 83.2-12.8 30.4 6.4 62.4-4.8 80-28.8 22.4-33.6 43.2-67.2 57.6-104z m-59.2-24c-12.8 30.4-30.4 60.8-51.2 86.4-3.2 4.8-9.6 6.4-16 4.8-43.2-9.6-89.6-3.2-128 19.2-40 22.4-68.8 59.2-81.6 102.4-1.6 6.4-6.4 11.2-12.8 11.2-33.6 4.8-67.2 4.8-100.8 0-6.4-1.6-11.2-4.8-12.8-11.2-12.8-43.2-41.6-80-81.6-102.4-38.4-22.4-84.8-28.8-129.6-19.2-6.4 1.6-12.8-1.6-16-4.8-20.8-27.2-38.4-56-51.2-86.4-1.6-6.4-1.6-12.8 3.2-17.6 62.4-68.8 62.4-174.4 0-243.2-4.8-4.8-4.8-11.2-3.2-16 12.8-32 30.4-60.8 49.6-86.4 3.2-4.8 11.2-6.4 16-6.4 91.2 20.8 182.4-33.6 211.2-121.6 1.6-6.4 6.4-9.6 12.8-11.2 16-1.6 33.6-3.2 49.6-3.2 17.6 0 33.6 1.6 51.2 3.2 6.4 1.6 11.2 4.8 12.8 11.2 12.8 43.2 41.6 80 81.6 102.4 38.4 22.4 84.8 28.8 129.6 19.2 6.4-1.6 12.8 1.6 16 4.8 20.8 27.2 38.4 56 51.2 86.4 1.6 4.8 1.6 12.8-3.2 17.6-62.4 68.8-62.4 174.4 0 243.2 4.8 4.8 4.8 11.2 3.2 17.6zM505.6 224c-88 0-160 72-160 160s72 160 160 160 160-72 160-160-70.4-160-160-160z m0 64c52.8 0 96 43.2 96 96s-43.2 96-96 96-96-43.2-96-96 43.2-96 96-96z"  horiz-adv-x="1024" />

    
    <glyph glyph-name="shipin" unicode="&#58986;" d="M784 784H240C152 784 80 712 80 624v-480c0-88 72-160 160-160h544c88 0 160 72 160 160V624c0 88-72 160-160 160zM144 176V592h736v-416H144z m96 544h544c41.6 0 76.8-27.2 89.6-64H150.4c12.8 36.8 48 64 89.6 64z m544-672H240c-41.6 0-76.8 27.2-89.6 64h724.8c-14.4-36.8-49.6-64-91.2-64zM628.8 438.4l-131.2 78.4c-9.6 6.4-20.8 9.6-33.6 9.6-35.2 0-64-28.8-64-64V304c0-11.2 3.2-22.4 9.6-33.6 8-14.4 22.4-25.6 40-28.8 4.8-1.6 11.2-1.6 16-1.6 11.2 0 22.4 3.2 33.6 9.6l131.2 78.4c9.6 4.8 16 12.8 22.4 22.4 16 30.4 6.4 70.4-24 88zM595.2 384L464 305.6V464l131.2-80z"  horiz-adv-x="1024" />

    
    <glyph glyph-name="shijianxuanzeqi" unicode="&#58987;" d="M942.4 419.2c-16 209.6-185.6 379.2-395.2 395.2C281.6 835.2 60.8 614.4 81.6 348.8c16-209.6 185.6-379.2 395.2-395.2 265.6-20.8 486.4 200 465.6 465.6z m-64-73.6c-17.6-172.8-156.8-312-328-328C316.8-4.8 123.2 188.8 145.6 422.4c17.6 172.8 156.8 312 328 328 233.6 22.4 427.2-171.2 404.8-404.8zM544 412.8V654.4c0 14.4-8 27.2-20.8 32-22.4 6.4-43.2-9.6-43.2-30.4v-262.4c0-1.6 0-1.6 1.6-3.2 0-1.6 0-1.6 1.6-3.2 0-1.6 1.6-1.6 1.6-3.2s0-1.6 1.6-3.2 3.2-3.2 3.2-4.8l134.4-134.4c9.6-9.6 25.6-14.4 38.4-6.4 20.8 11.2 24 36.8 8 51.2L544 412.8z"  horiz-adv-x="1024" />

    
    <glyph glyph-name="shoucang" unicode="&#58988;" d="M596.8 654.4L560 616c-25.6-25.6-68.8-25.6-94.4 0l-38.4 38.4c-73.6 73.6-193.6 80-268.8 11.2-80-73.6-83.2-200-6.4-276.8l315.2-315.2c24-24 65.6-24 89.6 0l315.2 315.2c76.8 76.8 73.6 203.2-6.4 276.8-75.2 67.2-193.6 62.4-268.8-11.2z m-44.8 44.8c97.6 97.6 254.4 105.6 356.8 14.4 108.8-99.2 112-267.2 9.6-369.6L601.6 28.8c-49.6-49.6-131.2-49.6-180.8 0L107.2 344C4.8 446.4 8 614.4 116.8 713.6c100.8 92.8 259.2 83.2 356.8-14.4l38.4-38.4c1.6-1.6 3.2-1.6 4.8 0l35.2 38.4z"  horiz-adv-x="1024" />

    
    <glyph glyph-name="sousuo" unicode="&#58989;" d="M928 9.6l-160 160c128 150.4 120 377.6-20.8 520-150.4 150.4-393.6 150.4-542.4 0-72-72-112-169.6-112-272s40-198.4 112-272c72-72 169.6-112 272-112 91.2 0 179.2 32 248 91.2l160-160c12.8-12.8 32-12.8 44.8 0 11.2 12.8 11.2 32-1.6 44.8zM249.6 190.4c-60.8 60.8-94.4 140.8-94.4 225.6s33.6 166.4 94.4 225.6c62.4 62.4 144 92.8 225.6 92.8s163.2-30.4 225.6-92.8c124.8-124.8 124.8-328 0-452.8C640 128 560 94.4 475.2 94.4c-84.8 3.2-164.8 35.2-225.6 96z"  horiz-adv-x="1024" />

    
    <glyph glyph-name="shuaxin" unicode="&#58990;" d="M577.6 70.4c-102.4-20.8-212.8 8-291.2 86.4-116.8 116.8-124.8 299.2-24 424v-59.2c0-17.6 14.4-32 32-32s32 14.4 32 32v128c0 9.6-3.2 17.6-9.6 22.4-6.4 6.4-14.4 9.6-22.4 9.6h-128c-17.6 0-32-14.4-32-32s14.4-32 32-32h44.8C91.2 468.8 102.4 251.2 240 112c96-96 228.8-129.6 352-104 4.8 1.6 11.2 4.8 14.4 8 12.8 12.8 12.8 32 0 44.8-6.4 9.6-19.2 12.8-28.8 9.6zM859.2 148.8H816c116.8 150.4 107.2 368-32 507.2-89.6 89.6-211.2 124.8-328 108.8-8 0-14.4-3.2-20.8-9.6-12.8-12.8-12.8-32 0-44.8 8-8 19.2-11.2 30.4-8 96 14.4 198.4-16 272-89.6 116.8-116.8 124.8-299.2 24-424v59.2c0 17.6-14.4 32-32 32s-32-14.4-32-32v-128c0-9.6 3.2-17.6 9.6-22.4 6.4-6.4 14.4-9.6 22.4-9.6h128c17.6 0 32 14.4 32 32s-12.8 28.8-30.4 28.8z"  horiz-adv-x="1024" />

    
    <glyph glyph-name="tishi" unicode="&#58991;" d="M896 128h-96V416c0 129.6-86.4 238.4-203.2 275.2 6.4 12.8 11.2 28.8 11.2 44.8 0 52.8-43.2 96-96 96s-96-43.2-96-96c0-16 4.8-32 11.2-44.8C310.4 654.4 224 545.6 224 416v-288H128c-17.6 0-32-14.4-32-32s14.4-32 32-32h227.2c14.4-73.6 80-128 156.8-128 76.8 0 142.4 54.4 156.8 128H896c17.6 0 32 14.4 32 32s-14.4 32-32 32zM480 736c0 17.6 14.4 32 32 32s32-14.4 32-32-14.4-32-32-32-32 14.4-32 32z m32-736c-41.6 0-76.8 27.2-91.2 64h180.8c-12.8-36.8-48-64-89.6-64z m160 128H288V416c0 123.2 100.8 224 224 224s224-100.8 224-224v-288h-64z"  horiz-adv-x="1024" />

    
    <glyph glyph-name="tianjiahaoyou" unicode="&#58992;" d="M512 432c88 0 160 72 160 160S600 752 512 752s-160-72-160-160 72-160 160-160z m224-288v96c0 17.6 14.4 32 32 32s32-14.4 32-32v-96h96c17.6 0 32-14.4 32-32s-14.4-32-32-32h-96v-96c0-17.6-14.4-32-32-32s-32 14.4-32 32v96h-96c-17.6 0-32 14.4-32 32s14.4 32 32 32h96z m-16 244.8c9.6-6.4 16-16 16-27.2 0-17.6-14.4-32-32-32-6.4 0-11.2 1.6-16 4.8-43.2 22.4-91.2 33.6-144 33.6h-64c-176 0-320-144-320-320 0-17.6 14.4-32 32-32h384c17.6 0 32-14.4 32-32s-14.4-32-32-32H192c-52.8 0-96 43.2-96 96 0 174.4 116.8 321.6 276.8 368-51.2 41.6-84.8 104-84.8 176 0 123.2 100.8 224 224 224s224-100.8 224-224c0-70.4-33.6-134.4-84.8-176 24-6.4 48-16 68.8-27.2z"  horiz-adv-x="1024" />

    
    <glyph glyph-name="tianjia" unicode="&#58993;" d="M512-48C273.6-48 80 145.6 80 384S273.6 816 512 816s432-193.6 432-432-193.6-432-432-432z m0 800C308.8 752 144 587.2 144 384s164.8-368 368-368 368 164.8 368 368S715.2 752 512 752zM584 379.2l-158.4 158.4c-12.8 12.8-12.8 32 0 44.8 12.8 12.8 32 12.8 44.8 0l180.8-180.8c6.4-6.4 9.6-14.4 9.6-22.4s-3.2-16-9.6-22.4L470.4 176c-12.8-12.8-32-12.8-44.8 0-12.8 12.8-12.8 32 0 44.8l158.4 158.4z"  horiz-adv-x="1024" />

    
    <glyph glyph-name="wancheng" unicode="&#58994;" d="M523.2 440c88 0 160 72 160 160s-72 160-160 160-160-72-160-160 70.4-160 160-160z m171.2-417.6l166.4 198.4c11.2 12.8 32 16 44.8 3.2s16-32 3.2-44.8L724.8-41.6l-1.6-1.6s0-1.6-1.6-1.6c-11.2-12.8-32-16-44.8-3.2l-97.6 81.6c-12.8 11.2-16 32-3.2 44.8s32 16 44.8 3.2l73.6-59.2z m102.4 331.2c8-6.4 14.4-16 14.4-25.6 0-17.6-14.4-32-32-32-8 0-14.4 3.2-20.8 8-56 46.4-126.4 73.6-203.2 73.6h-64c-176 0-320-144-320-320 0-17.6 14.4-32 32-32h256c17.6 0 32-14.4 32-32s-14.4-32-32-32h-256c-52.8 0-96 43.2-96 96 0 174.4 116.8 321.6 276.8 368-51.2 41.6-84.8 104-84.8 176 0 123.2 100.8 224 224 224s224-100.8 224-224c0-70.4-33.6-134.4-84.8-176 49.6-16 94.4-40 134.4-72z"  horiz-adv-x="1024" />

    
    <glyph glyph-name="wenjianjia" unicode="&#58995;" d="M510.4 652.8c8-27.2 33.6-44.8 60.8-44.8h259.2c0 35.2-28.8 64-64 64H504l6.4-19.2zM484.8 736h281.6c70.4 0 128-57.6 128-128v-25.6c30.4-24 51.2-60.8 51.2-102.4v-384c0-70.4-57.6-128-128-128H208c-70.4 0-128 57.6-128 128V672c0 70.4 57.6 128 128 128h164.8c46.4 0 89.6-25.6 112-64z m-112 0H208c-35.2 0-64-28.8-64-64v-576c0-35.2 28.8-64 64-64h608c35.2 0 64 28.8 64 64V480c0 35.2-28.8 64-64 64H574.4c-56 0-105.6 36.8-121.6 89.6l-19.2 57.6c-8 27.2-32 44.8-60.8 44.8zM272 192h256c17.6 0 32-14.4 32-32s-14.4-32-32-32H272c-17.6 0-32 14.4-32 32s14.4 32 32 32z"  horiz-adv-x="1024" />

    
    <glyph glyph-name="tupian" unicode="&#58996;" d="M784 784H240C152 784 80 712 80 624v-480c0-88 72-160 160-160h544c88 0 160 72 160 160V624c0 88-72 160-160 160z m96-640c0-52.8-43.2-96-96-96H240c-52.8 0-96 43.2-96 96V624c0 52.8 43.2 96 96 96h544c52.8 0 96-43.2 96-96v-480zM352 416c52.8 0 96 43.2 96 96s-43.2 96-96 96-96-43.2-96-96 43.2-96 96-96z m0 128c17.6 0 32-14.4 32-32s-14.4-32-32-32-32 14.4-32 32 14.4 32 32 32zM814.4 164.8l-3.2 3.2-177.6 177.6c-25.6 25.6-65.6 25.6-91.2 0l-80-80-36.8 36.8c-25.6 25.6-65.6 25.6-91.2 0l-134.4-134.4c-4.8-6.4-8-14.4-8-24 0-17.6 14.4-32 32-32 9.6 0 16 3.2 22.4 9.6l134.4 134.4 134.4-134.4c6.4-6.4 14.4-9.6 24-9.6 17.6 0 32 14.4 32 32 0 9.6-4.8 17.6-9.6 24l-52.8 52.8 80 80 180.8-180.8c6.4-4.8 12.8-8 20.8-8 17.6 0 32 14.4 32 32 0 8-3.2 16-8 20.8z"  horiz-adv-x="1024" />

    
    <glyph glyph-name="wenjian" unicode="&#58997;" d="M752 816H272c-70.4 0-128-57.6-128-128v-608c0-70.4 57.6-128 128-128h353.6c33.6 0 65.6 12.8 91.2 36.8l126.4 126.4c24 24 36.8 56 36.8 91.2V688c0 70.4-57.6 128-128 128zM208 80V688c0 35.2 28.8 64 64 64h480c35.2 0 64-28.8 64-64v-464h-96c-70.4 0-128-57.6-128-128v-80H272c-35.2 0-64 28.8-64 64z m462.4-44.8c-4.8-4.8-9.6-8-14.4-11.2V96c0 35.2 28.8 64 64 64h75.2l-124.8-124.8zM368 544h288c17.6 0 32 14.4 32 32s-14.4 32-32 32H368c-17.6 0-32-14.4-32-32s14.4-32 32-32zM496 288h-128c-17.6 0-32-14.4-32-32s14.4-32 32-32h128c17.6 0 32 14.4 32 32s-14.4 32-32 32zM368 384h288c17.6 0 32 14.4 32 32s-14.4 32-32 32H368c-17.6 0-32-14.4-32-32s14.4-32 32-32z"  horiz-adv-x="1024" />

    
    <glyph glyph-name="wode" unicode="&#58998;" d="M512 432c88 0 160 72 160 160S600 752 512 752s-160-72-160-160 72-160 160-160z m-139.2-16c-51.2 41.6-84.8 104-84.8 176 0 123.2 100.8 224 224 224s224-100.8 224-224c0-70.4-33.6-134.4-84.8-176C811.2 369.6 928 222.4 928 48c0-52.8-43.2-96-96-96H192c-52.8 0-96 43.2-96 96 0 174.4 116.8 321.6 276.8 368zM832 16c17.6 0 32 14.4 32 32 0 176-144 320-320 320h-64c-176 0-320-144-320-320 0-17.6 14.4-32 32-32h640z"  horiz-adv-x="1024" />

    
    <glyph glyph-name="wuliu" unicode="&#58999;" d="M784 784H592c-72 0-132.8-46.4-152-112h-121.6c-48 0-91.2-27.2-113.6-68.8L94.4 388.8c-9.6-17.6-14.4-38.4-14.4-59.2V192c0-52.8 43.2-96 96-96h32c0-62.4 49.6-112 112-112s112 49.6 112 112h160c0-62.4 49.6-112 112-112s112 49.6 112 112h32c52.8 0 96 43.2 96 96V624c0 88-72 160-160 160zM496 624c0 52.8 43.2 96 96 96h192c52.8 0 96-43.2 96-96v-128c0-52.8-43.2-96-96-96H592c-52.8 0-96 43.2-96 96v128zM320 48c-27.2 0-48 20.8-48 48s20.8 48 48 48 48-20.8 48-48-20.8-48-48-48z m384 0c-27.2 0-48 20.8-48 48s20.8 48 48 48 48-20.8 48-48-20.8-48-48-48z m144 112h-52.8c-20.8 28.8-54.4 48-91.2 48s-72-19.2-91.2-48H411.2c-20.8 28.8-54.4 48-91.2 48s-72-19.2-91.2-48H176c-17.6 0-32 14.4-32 32v137.6c0 9.6 3.2 20.8 6.4 28.8l110.4 214.4c11.2 20.8 33.6 35.2 57.6 35.2H432v-112c0-88 72-160 160-160h192c36.8 0 68.8 12.8 96 32v-176c0-17.6-14.4-32-32-32zM352 480h-64c-17.6 0-32-14.4-32-32s14.4-32 32-32h64c17.6 0 32 14.4 32 32s-14.4 32-32 32z"  horiz-adv-x="1024" />

    
    <glyph glyph-name="hanglixiang" unicode="&#59000;" d="M816 672h-112v64c0 52.8-43.2 96-96 96H416c-52.8 0-96-43.2-96-96v-64h-112c-70.4 0-128-57.6-128-128v-448c0-70.4 57.6-128 128-128h608c70.4 0 128 57.6 128 128V544c0 70.4-57.6 128-128 128z m-432 64c0 17.6 14.4 32 32 32h192c17.6 0 32-14.4 32-32v-64H384v64z m320-128h16v-416h-16c-17.6 0-32-14.4-32-32s14.4-32 32-32h16v-96H304v96h16c17.6 0 32 14.4 32 32s-14.4 32-32 32h-16V608h400zM144 96V544c0 35.2 28.8 64 64 64h32v-416h-16c-17.6 0-32-14.4-32-32s14.4-32 32-32h16v-96h-32c-35.2 0-64 28.8-64 64z m736 0c0-35.2-28.8-64-64-64h-32v96h16c17.6 0 32 14.4 32 32s-14.4 32-32 32h-16V608h32c35.2 0 64-28.8 64-64v-448z"  horiz-adv-x="1024" />

    
    <glyph glyph-name="hanglixiang1" unicode="&#59001;" d="M704 720V752c0 52.8-43.2 96-96 96H416c-52.8 0-96-43.2-96-96v-32c-88 0-160-72-160-160v-416c0-88 72-160 160-160h32v-32c0-17.6 14.4-32 32-32s32 14.4 32 32v32h192v-32c0-17.6 14.4-32 32-32s32 14.4 32 32v32h32c88 0 160 72 160 160V560c0 88-72 160-160 160zM384 752c0 17.6 14.4 32 32 32h192c17.6 0 32-14.4 32-32v-32H384V752z m416-608c0-52.8-43.2-96-96-96H320c-52.8 0-96 43.2-96 96V560c0 52.8 43.2 96 96 96h384c52.8 0 96-43.2 96-96v-416zM400 560c-17.6 0-32-14.4-32-32v-352c0-17.6 14.4-32 32-32s32 14.4 32 32V528c0 17.6-14.4 32-32 32zM624 560c-17.6 0-32-14.4-32-32v-352c0-17.6 14.4-32 32-32s32 14.4 32 32V528c0 17.6-14.4 32-32 32z"  horiz-adv-x="1024" />

    
    <glyph glyph-name="youjian" unicode="&#59002;" d="M784 752H240C152 752 80 680 80 592v-416c0-88 72-160 160-160h544c88 0 160 72 160 160V592c0 88-72 160-160 160z m-544-64h544c35.2 0 65.6-19.2 81.6-46.4L552 387.2c-24-19.2-57.6-19.2-80 0L158.4 641.6c16 27.2 46.4 46.4 81.6 46.4z m544-608H240c-52.8 0-96 43.2-96 96V569.6L432 336c24-19.2 51.2-28.8 80-28.8 28.8 0 57.6 9.6 80 28.8l288 233.6V176c0-52.8-43.2-96-96-96z"  horiz-adv-x="1024" />

    
    <glyph glyph-name="xiangji" unicode="&#59003;" d="M784 624h-139.2L624 686.4c-12.8 40-49.6 65.6-91.2 65.6H318.4c-41.6 0-78.4-25.6-91.2-65.6l-22.4-65.6c-72-16-126.4-80-126.4-156.8v-320c0-88 72-160 160-160h544c88 0 160 72 160 160V464c1.6 88-70.4 160-158.4 160z m-496 41.6c4.8 12.8 16 22.4 30.4 22.4h214.4c14.4 0 25.6-8 30.4-22.4l14.4-41.6H275.2l12.8 41.6zM880 144c0-52.8-43.2-96-96-96H240c-52.8 0-96 43.2-96 96V464c0 52.8 43.2 96 96 96h544c52.8 0 96-43.2 96-96v-320zM752 656h64c17.6 0 32 14.4 32 32s-14.4 32-32 32h-64c-17.6 0-32-14.4-32-32s14.4-32 32-32zM512 464c-88 0-160-72-160-160s72-160 160-160 160 72 160 160-72 160-160 160z m0-256c-52.8 0-96 43.2-96 96s43.2 96 96 96 96-43.2 96-96-43.2-96-96-96z"  horiz-adv-x="1024" />

    
    <glyph glyph-name="zhengjian" unicode="&#59004;" d="M816 784H208C120 784 48 712 48 624v-480c0-88 72-160 160-160h608c88 0 160 72 160 160V624c0 88-72 160-160 160z m96-640c0-52.8-43.2-96-96-96H208c-52.8 0-96 43.2-96 96V624c0 52.8 43.2 96 96 96h608c52.8 0 96-43.2 96-96v-480zM459.2 406.4c22.4 22.4 36.8 54.4 36.8 89.6 0 70.4-57.6 128-128 128s-128-57.6-128-128c0-35.2 14.4-67.2 36.8-89.6C225.6 376 192 320 192 256v-57.6c0-30.4 24-54.4 52.8-54.4h246.4c28.8 0 52.8 24 52.8 54.4V256c0 64-33.6 120-84.8 150.4zM304 496c0 35.2 28.8 64 64 64s64-28.8 64-64-28.8-64-64-64-64 28.8-64 64z m176-288H256v48c0 62.4 49.6 112 112 112s112-49.6 112-112v-48zM800 416H640c-17.6 0-32-14.4-32-32s14.4-32 32-32h160c17.6 0 32 14.4 32 32s-14.4 32-32 32zM800 576H608c-17.6 0-32-14.4-32-32s14.4-32 32-32h192c17.6 0 32 14.4 32 32s-14.4 32-32 32zM800 256h-128c-17.6 0-32-14.4-32-32s14.4-32 32-32h128c17.6 0 32 14.4 32 32s-14.4 32-32 32z"  horiz-adv-x="1024" />

    
    <glyph glyph-name="zhexiantu" unicode="&#59005;" d="M912 48H144V752c0 17.6-14.4 32-32 32s-32-14.4-32-32v-736c0-17.6 14.4-32 32-32h800c17.6 0 32 14.4 32 32s-14.4 32-32 32zM246.4 259.2l193.6 193.6 158.4-158.4c6.4-6.4 16-9.6 24-9.6s16 3.2 22.4 9.6l276.8 278.4c11.2 12.8 11.2 32 0 43.2s-32 12.8-43.2 0L624 360l-160 160c-8 4.8-16 8-24 8s-16-3.2-22.4-9.6L201.6 304c-12.8-12.8-12.8-32 0-44.8 12.8-12.8 32-12.8 44.8 0z"  horiz-adv-x="1024" />

    
    <glyph glyph-name="zhuye" unicode="&#59006;" d="M947.2 480L576 793.6c-35.2 30.4-88 30.4-123.2 0L76.8 480c-8-6.4-12.8-14.4-12.8-25.6 0-17.6 14.4-32 32-32 8 0 16 3.2 20.8 8l11.2 9.6v-356.8c0-72 54.4-131.2 123.2-131.2h521.6c67.2 0 123.2 59.2 123.2 131.2V440l9.6-8c6.4-4.8 12.8-8 22.4-8 17.6 0 32 14.4 32 32 0 8-4.8 17.6-12.8 24zM448 16V240c0 17.6 14.4 32 32 32h64c17.6 0 32-14.4 32-32v-224h-128z m384 67.2c0-36.8-27.2-67.2-60.8-67.2H640V240c0 52.8-43.2 96-96 96h-64c-52.8 0-96-43.2-96-96v-224h-131.2c-33.6 0-60.8 30.4-60.8 67.2V492.8L492.8 744c11.2 9.6 28.8 9.6 41.6 0L832 494.4v-411.2z"  horiz-adv-x="1024" />

    
    <glyph glyph-name="zhuzhuangtu" unicode="&#59007;" d="M112 64h800c17.6 0 32-14.4 32-32s-14.4-32-32-32H112c-17.6 0-32 14.4-32 32s14.4 32 32 32zM224 96c-62.4 0-112 49.6-112 112V560c0 62.4 49.6 112 112 112s112-49.6 112-112v-352c0-62.4-49.6-112-112-112z m0 512c-27.2 0-48-20.8-48-48v-352c0-27.2 20.8-48 48-48s48 20.8 48 48V560c0 27.2-20.8 48-48 48zM512 96c-62.4 0-112 49.6-112 112V400c0 62.4 49.6 112 112 112s112-49.6 112-112v-192c0-62.4-49.6-112-112-112z m0 352c-27.2 0-48-20.8-48-48v-192c0-27.2 20.8-48 48-48s48 20.8 48 48V400c0 27.2-20.8 48-48 48zM800 96c-62.4 0-112 49.6-112 112V656c0 62.4 49.6 112 112 112s112-49.6 112-112v-448c0-62.4-49.6-112-112-112z m0 608c-27.2 0-48-20.8-48-48v-448c0-27.2 20.8-48 48-48s48 20.8 48 48V656c0 27.2-20.8 48-48 48z"  horiz-adv-x="1024" />

    
    <glyph glyph-name="zixun" unicode="&#59008;" d="M432 288h-128c-17.6 0-32-14.4-32-32s14.4-32 32-32h128c17.6 0 32 14.4 32 32s-14.4 32-32 32zM592 448H304c-17.6 0-32-14.4-32-32s14.4-32 32-32h288c17.6 0 32 14.4 32 32s-14.4 32-32 32zM592 608H304c-17.6 0-32-14.4-32-32s14.4-32 32-32h288c17.6 0 32 14.4 32 32s-14.4 32-32 32zM784 640v32c0 70.4-57.6 128-128 128H240c-70.4 0-128-57.6-128-128v-576c0-70.4 57.6-128 128-128h544c70.4 0 128 57.6 128 128V512c0 70.4-57.6 128-128 128z m64-544c0-35.2-28.8-64-64-64H240c-35.2 0-64 28.8-64 64V672c0 35.2 28.8 64 64 64h416c35.2 0 64-28.8 64-64v-480c0-17.6 14.4-32 32-32s32 14.4 32 32V576c35.2 0 64-28.8 64-64v-416z"  horiz-adv-x="1024" />

    
    <glyph glyph-name="zuixiaohua" unicode="&#59009;" d="M784 816H240C152 816 80 744 80 656v-544c0-88 72-160 160-160h544c88 0 160 72 160 160V656c0 88-72 160-160 160z m96-704c0-52.8-43.2-96-96-96h-96v96c0 52.8 43.2 96 96 96h96v-96z m0 160h-96c-88 0-160-72-160-160v-96H240c-52.8 0-96 43.2-96 96V656c0 52.8 43.2 96 96 96h544c52.8 0 96-43.2 96-96v-384zM560 560c-17.6 0-32-14.4-32-32v-115.2L302.4 638.4c-12.8 12.8-32 12.8-44.8 0-12.8-12.8-12.8-32 0-44.8L483.2 368H368c-17.6 0-32-14.4-32-32s14.4-32 32-32h192c9.6 0 17.6 3.2 22.4 9.6 6.4 6.4 9.6 14.4 9.6 22.4V528c0 17.6-14.4 32-32 32z"  horiz-adv-x="1024" />

    
    <glyph glyph-name="HSbianma" unicode="&#59010;" d="M784 64h32c35.2 0 64 28.8 64 64V640c0 35.2-28.8 64-64 64h-32c-17.6 0-32 14.4-32 32s14.4 32 32 32h32c70.4 0 128-57.6 128-128v-512c0-70.4-57.6-128-128-128h-32c-17.6 0-32 14.4-32 32s14.4 32 32 32z m-544 0h-32c-35.2 0-64 28.8-64 64V640c0 35.2 28.8 64 64 64h32c17.6 0 32 14.4 32 32s-14.4 32-32 32h-32c-70.4 0-128-57.6-128-128v-512c0-70.4 57.6-128 128-128h32c17.6 0 32 14.4 32 32s-14.4 32-32 32zM459.2 601.6c20.8 0 36.8-16 36.8-36.8v-364.8c0-20.8-16-36.8-36.8-36.8s-36.8 16-36.8 36.8v145.6h-108.8v-145.6c0-20.8-16-36.8-36.8-36.8-20.8 0-36.8 16-36.8 36.8V564.8c0 20.8 16 36.8 36.8 36.8 20.8 0 36.8-16 36.8-36.8v-145.6h108.8v145.6c0 19.2 16 36.8 36.8 36.8z m220.8-184c46.4-32 102.4-70.4 102.4-139.2 0-64-52.8-116.8-116.8-116.8s-116.8 52.8-116.8 116.8c0 19.2 16 36.8 36.8 36.8 19.2 0 36.8-16 36.8-36.8 0-24 20.8-44.8 44.8-44.8 24 0 44.8 20.8 44.8 44.8 0 28.8-27.2 49.6-72 80s-97.6 67.2-97.6 129.6c0 64 52.8 116.8 116.8 116.8s116.8-52.8 116.8-116.8c0-19.2-16-36.8-36.8-36.8-19.2 0-36.8 16-36.8 36.8 0 24-20.8 44.8-44.8 44.8s-44.8-20.8-44.8-44.8c1.6-24 27.2-43.2 67.2-70.4z"  horiz-adv-x="1024" />

    


  </font>
</defs>
</svg>
