<?xml version="1.0" standalone="no"?><!DOCTYPE svg PUBLIC "-//W3C//DTD SVG 1.1//EN" "http://www.w3.org/Graphics/SVG/1.1/DTD/svg11.dtd"><svg t="1620712456634" class="icon" viewBox="0 0 1024 1024" version="1.1" xmlns="http://www.w3.org/2000/svg" p-id="3989" xmlns:xlink="http://www.w3.org/1999/xlink" width="200" height="200"><defs><style type="text/css"></style></defs><path d="M913.408 59.392H110.592C81.92 59.392 59.392 81.92 59.392 110.592v802.816c0 28.672 22.528 51.2 51.2 51.2h802.816c28.672 0 51.2-22.528 51.2-51.2V110.592c0-28.672-22.528-51.2-51.2-51.2z m4.096 841.728c0 8.192-6.144 16.384-16.384 16.384H122.88c-8.192 0-16.384-6.144-16.384-16.384V122.88c0-8.192 6.144-16.384 16.384-16.384h778.24c8.192 0 16.384 6.144 16.384 16.384v778.24z" fill="#1296db" p-id="3990"></path><path d="M720.896 468.992c-2.048-2.048-2.048-8.192-4.096-12.288l-186.368 202.752c-6.144 8.192-18.432 8.192-26.624 0l-120.832-141.312c-6.144-8.192-6.144-18.432 0-26.624s18.432-8.192 26.624 0l98.304 75.776c4.096 4.096 10.24 4.096 14.336 0l186.368-163.84v-4.096c0-112.64-92.16-204.8-204.8-204.8s-204.8 92.16-204.8 204.8c0 12.288-4.096 63.488-8.192 73.728-18.432 36.864-49.152 98.304-57.344 137.216-10.24 51.2 4.096 98.304 20.48 90.112 24.576-10.24 40.96-47.104 47.104-69.632 4.096 14.336 20.48 92.16 51.2 116.736-26.624 6.144-67.584 28.672-53.248 61.44 10.24 24.576 122.88 53.248 194.56-4.096 4.096 0 10.24-2.048 14.336-2.048 2.048 0 10.24 2.048 14.336 2.048 71.68 55.296 184.32 28.672 194.56 4.096 14.336-32.768-28.672-55.296-53.248-61.44 30.72-24.576 34.816-102.4 38.912-116.736 4.096 20.48 30.72 61.44 57.344 69.632 18.432 4.096 30.72-40.96 20.48-90.112-10.24-43.008-40.96-104.448-59.392-141.312z" fill="#1296db" p-id="3991"></path></svg>