<?xml version="1.0" standalone="no"?><!DOCTYPE svg PUBLIC "-//W3C//DTD SVG 1.1//EN" "http://www.w3.org/Graphics/SVG/1.1/DTD/svg11.dtd"><svg t="1620712419318" class="icon" viewBox="0 0 1024 1024" version="1.1" xmlns="http://www.w3.org/2000/svg" p-id="3485" xmlns:xlink="http://www.w3.org/1999/xlink" width="200" height="200"><defs><style type="text/css"></style></defs><path d="M342.745666 345.269651c-17.134239 0-34.283828 11.347442-34.299177 28.497031 0 17.149589 17.149589 28.498054 34.299177 28.498054 17.149589 0 28.497031-11.604292 28.497031-28.498054C371.243721 356.617094 359.896278 345.269651 342.745666 345.269651zM502.12663 402.264737c17.150612 0 28.499078-11.347442 28.499078-28.465309 0-17.181311-11.33107-28.528754-28.499078-28.528754-16.892739 0-34.043351 11.347442-34.282804 28.497031C467.843826 390.916271 484.977042 402.264737 502.12663 402.264737zM576.274374 510.708588c-11.347442 0-22.696931 11.347442-22.696931 22.694885 0 11.348466 11.349489 22.695908 22.696931 22.695908 17.149589 0 28.497031-11.347442 28.497031-22.695908C604.771405 522.057053 593.423963 510.708588 576.274374 510.708588zM847.240739 34.650171 174.452729 34.650171c-77.110215 0-139.601478 62.492286-139.601478 139.570779l0 672.736844c0 77.077469 62.492286 139.569756 139.601478 139.569756l672.78801 0c77.093842 0 139.570779-62.491263 139.570779-139.569756L986.811518 174.22095C986.811518 97.142457 924.334581 34.650171 847.240739 34.650171zM416.874991 635.790374c-28.240181 0-51.17759-5.802146-79.690994-11.316743l-79.68997 40.069601 22.693862-68.598354c-56.978712-39.845497-91.037413-91.328032-91.02104-153.835667 0.016373-108.444874 102.642728-193.680141 227.738841-193.680141 111.973234 0 210.064296 68.1174 229.731218 159.925363-7.308453-0.769526-14.617929-1.282203-21.942755-1.282203-108.190071 0-193.682187 80.683601-193.69856 180.056865 0 16.381086 2.532683 32.537044 7.067976 47.666626C430.995593 635.533524 423.942967 635.790374 416.874991 635.790374zM752.821299 715.737194l17.133216 56.994062-62.539358-34.299177c-22.695908 5.545296-45.647643 11.347442-68.343551 11.347442-108.445898 0-193.699584-73.887824-193.699584-165.18311 0-91.037413 85.254709-165.182087 193.699584-165.182087 102.386902 0 193.425338 74.144674 193.425338 165.214832C832.49592 635.790374 798.453592 681.436994 752.821299 715.737194zM701.611987 510.708588c-11.347442 0-22.695908 11.347442-22.695908 22.694885 0 11.348466 11.348466 22.695908 22.695908 22.695908 16.893762 0 28.497031-11.347442 28.497031-22.695908C730.107995 522.057053 718.762599 510.708588 701.611987 510.708588z" p-id="3486" fill="#1afa29"></path></svg>