<?xml version="1.0" standalone="no"?><!DOCTYPE svg PUBLIC "-//W3C//DTD SVG 1.1//EN" "http://www.w3.org/Graphics/SVG/1.1/DTD/svg11.dtd"><svg t="1620712490864" class="icon" viewBox="0 0 1024 1024" version="1.1" xmlns="http://www.w3.org/2000/svg" p-id="4847" xmlns:xlink="http://www.w3.org/1999/xlink" width="200" height="200"><defs><style type="text/css"></style></defs><path d="M723.456 592.384c0-25.6 20.48-46.08 46.08-46.08s46.08 20.48 46.08 46.08-20.48 46.08-46.08 46.08c-25.088 0-46.08-20.48-46.08-46.08z m13.312 101.376H1024v250.88c0 43.52-35.84 78.848-78.848 78.848H78.848C35.328 1024 0 988.16 0 945.152V321.536c0-43.52 35.84-78.848 78.848-78.848h865.792c43.52 0 78.848 35.84 78.848 78.848v163.328h-287.232c-43.52 0-78.848 35.84-78.848 78.848v50.688c0 43.52 35.84 79.36 79.36 79.36z m141.312-501.76L794.624 40.96c-20.992-37.888-69.12-52.224-107.52-30.72L357.376 192h520.704z m0 0" p-id="4848" fill="#1afa29"></path></svg>