<?xml version="1.0" standalone="no"?><!DOCTYPE svg PUBLIC "-//W3C//DTD SVG 1.1//EN" "http://www.w3.org/Graphics/SVG/1.1/DTD/svg11.dtd"><svg t="1623051324804" class="icon" viewBox="0 0 1024 1024" version="1.1" xmlns="http://www.w3.org/2000/svg" p-id="3399" xmlns:xlink="http://www.w3.org/1999/xlink" width="64" height="64"><defs><style type="text/css"></style></defs><path d="M512 1024C229.2224 1024 0 794.7776 0 512 0 229.2224 229.2224 0 512 0c282.7776 0 512 229.2224 512 512 0 282.7776-229.2224 512-512 512z m175.684267-547.072c-9.0112-2.781867-15.2576-4.625067-10.478934-16.810667 10.24-26.333867 11.332267-49.1008 0.187734-65.314133-20.8896-30.464-77.9776-28.791467-143.428267-0.8192 0 0-20.5312 9.181867-15.274667-7.458133 10.069333-33.041067 8.533333-60.7232-7.1168-76.6976-35.498667-36.266667-129.9456 1.365333-210.926933 84.002133C240.0256 455.765333 204.8 521.386667 204.8 578.082133c0 108.544 136.328533 174.506667 269.704533 174.506667 174.830933 0 291.140267-103.68 291.140267-186.026667 0-49.7152-41.045333-77.960533-77.960533-89.634133z m-212.821334 236.765867c-106.410667 10.717867-198.2976-38.365867-205.2096-109.704534-6.912-71.304533 73.7792-137.8304 180.189867-148.565333 106.4448-10.734933 198.314667 38.3488 205.2096 109.653333 6.894933 71.338667-73.7792 137.898667-180.189867 148.616534z m5.802667-198.007467c-50.875733-13.909333-108.3904 12.6976-130.491733 59.8016-22.528 48.008533-0.733867 101.2736 50.653866 118.7328 53.248 18.005333 116.036267-9.6256 137.847467-61.3888 21.538133-50.705067-5.341867-102.8608-58.026667-117.1456z m-4.778667 76.680533c-3.720533 6.7072-11.997867 9.9328-18.466133 7.168-6.382933-2.781867-8.379733-10.274133-4.7616-16.896 3.7376-6.5536 11.6736-9.728 18.0224-7.099733 6.4512 2.491733 8.789333 10.069333 5.205333 16.827733zM441.821867 638.293333c-10.359467 17.288533-32.477867 24.8832-49.152 16.896-16.469333-7.850667-21.316267-27.989333-10.973867-44.885333 10.205867-16.7936 31.624533-24.32 48.1792-17.032533 16.759467 7.509333 22.101333 27.4944 11.946667 45.021866z m363.9296-354.816c-40.277333-46.592-99.669333-64.375467-154.487467-52.224h-0.017067c-12.680533 2.850133-20.770133 15.872-18.056533 29.098667 2.696533 13.226667 15.172267 21.7088 27.8528 18.8416 39.0144-8.618667 81.220267 4.027733 109.858133 37.12 28.586667 33.1264 36.352 78.267733 24.1152 117.845333v0.017067c-3.9936 12.9024 2.747733 26.6752 15.121067 30.839467 12.305067 4.181333 25.565867-2.884267 29.5424-15.701334v-0.136533c17.237333-55.671467 6.331733-119.125333-33.928533-165.700267z m-59.528534 67.293867c-20.992-22.1184-51.968-30.532267-80.571733-24.746667-11.707733 2.3552-19.165867 13.294933-16.622933 24.405334 2.474667 11.093333 13.994667 18.210133 25.617066 15.803733v0.017067c13.994667-2.816 29.149867 1.297067 39.424 12.066133 10.274133 10.820267 13.038933 25.582933 8.618667 38.5024h0.017067c-3.669333 10.8032 2.56 22.391467 13.909333 25.9072 11.400533 3.447467 23.586133-2.440533 27.255467-13.2608 8.994133-26.453333 3.3792-56.558933-17.646934-78.677333z" fill="#E6172D" p-id="3400"></path></svg>