<?xml version="1.0" standalone="no"?><!DOCTYPE svg PUBLIC "-//W3C//DTD SVG 1.1//EN" "http://www.w3.org/Graphics/SVG/1.1/DTD/svg11.dtd"><svg t="1623051114579" class="icon" viewBox="0 0 1024 1024" version="1.1" xmlns="http://www.w3.org/2000/svg" p-id="3044" xmlns:xlink="http://www.w3.org/1999/xlink" width="64" height="64"><defs><style type="text/css"></style></defs><path d="M332.811537 412.806386c-12.799176 3.199794-28.798146-3.199794-35.197734-22.398559-3.199794-15.99897 3.199794-35.197734 22.398558-35.197734h12.799176c15.99897 0 28.798146 12.799176 28.798146 28.798146s-12.799176 28.798146-28.798146 28.798147z m175.988671 0c-15.99897 3.199794-35.197734-3.199794-38.397528-22.398559-3.199794-15.99897 3.199794-35.197734 22.398558-38.397528h12.799176c15.99897 0 28.798146 12.799176 28.798146 28.798146 3.199794 19.198764-9.599382 31.99794-25.598352 31.997941z m79.99485 163.189494c-12.799176 0-25.598352-9.599382-25.598352-22.398558 0-12.799176 9.599382-25.598352 22.398558-25.598352 12.799176-3.199794 25.598352 3.199794 28.798147 15.99897 3.199794 12.799176-3.199794 25.598352-15.998971 28.798146 0 3.199794-9.599382 3.199794-9.599382 3.199794z m137.591143 0c-12.799176 0-25.598352-9.599382-25.598352-22.398558 0-12.799176 9.599382-25.598352 22.398558-25.598352 12.799176-3.199794 25.598352 3.199794 28.798146 15.99897 3.199794 12.799176-3.199794 25.598352-15.99897 28.798146h-9.599382v3.199794zM655.990733 435.204944c-118.392378 0-207.986611 76.795056-207.986611 169.589082s92.794026 169.589083 207.986611 169.589083c25.598352 0 51.196704-3.199794 73.595262-12.799176l67.195674 35.197734-15.99897-60.796086c47.99691-28.798146 79.99485-79.99485 86.394439-137.591143C867.177138 512 767.983523 435.204944 655.990733 435.204944zM412.806388 256.016479c-137.591143 0-246.384139 89.594232-246.384139 201.587023 3.199794 67.195674 38.397528 127.991761 99.193614 156.789906L240.017511 687.988671l86.394438-41.597322c28.798146 9.599382 54.396498 12.799176 86.394439 12.799176h22.398558c-3.199794-15.99897-9.599382-35.197734-9.599382-51.196705 3.199794-111.99279 99.193614-191.987641 207.986611-188.787846h25.598352c-15.99897-89.594232-121.592173-163.189495-246.384139-163.189495z m102.393408 767.950563C233.617923 1027.166836 3.232754 796.781667 0.03296 515.199794S227.218335 3.232752 508.800208 0.032958s511.967042 227.185375 515.166836 508.767248v3.199794c0 281.581873-227.185375 511.967042-508.767248 511.967042z" fill="#51C332" p-id="3045" data-spm-anchor-id="a313x.7781069.0.i4" class=""></path></svg>